<?xml version="1.0" encoding="UTF-8" standalone="no"?>
<!-- Created with Inkscape (http://www.inkscape.org/) -->

<svg
   width="143.26259mm"
   height="95.132385mm"
   viewBox="0 0 143.26259 95.132385"
   version="1.1"
   id="svg1"
   xmlns="http://www.w3.org/2000/svg"
   xmlns:svg="http://www.w3.org/2000/svg">
  <defs
     id="defs1" />
  <g
     id="layer1"
     transform="translate(-9.8677085,-20)">
    <path
       style="fill:none;stroke:#000000;stroke-width:0.264583;stroke-opacity:1"
       d="m 10.041834,25.13229 c 0,0 15.000001,-4.999999 25.000001,-4.999999 10,0 14.020004,2.810924 19.999999,9.999999 5.979995,7.189075 12.329386,24.999999 15.000001,29.999999 2.670614,5 5,15.000002 15,15.000001 10,-10e-7 18.325855,-6.578394 29.999995,-20 11.67414,-13.421606 15,-19.999999 15,-19.999999"
       id="path1" />
    <path
       style="fill:#f3d2d2;fill-opacity:1;stroke:#000000;stroke-width:0.264583;stroke-opacity:1"
       d="m 10.000001,34.999999 c 0,0 15.000001,-4.999999 25.000001,-4.999999 10,0 14.020004,2.810924 19.999999,9.999999 5.979995,7.189075 12.329386,24.999999 15.000001,29.999999 2.670614,5 5,15.000002 15,15.000001 10,-10e-7 18.325858,-6.578394 29.999998,-20 C 126.67414,51.578393 130,45 130,45 V 99.999997 L 10,84.999998 Z"
       id="path1-5" />
    <path
       style="fill:#f3d2d2;fill-opacity:1;stroke:#000000;stroke-width:0.264583;stroke-opacity:1"
       d="M 10.041834,25.13229 10,34.999998"
       id="path2" />
    <path
       style="fill:#f3d2d2;fill-opacity:1;stroke:#000000;stroke-width:0.264583;stroke-opacity:1"
       d="M 130.04183,35.132291 130,44.999999"
       id="path3" />
    <path
       style="fill:#d2e2f3;fill-opacity:1;stroke:#000000;stroke-width:0.264583;stroke-opacity:1"
       d="M 130.13229,114.91394 10,115 V 84.999996 l 120,15.000001 z"
       id="path4" />
    <text
       xml:space="preserve"
       style="font-size:3.175px;fill:#d2e2f3;fill-opacity:1;stroke:#000000;stroke-width:0.264583;stroke-opacity:1"
       x="135"
       y="109.99999"
       id="text4"><tspan
         id="tspan4"
         style="stroke-width:0.264583"
         x="135"
         y="109.99999">Bedrock</tspan></text>
    <text
       xml:space="preserve"
       style="font-size:3.175px;fill:#d2e2f3;fill-opacity:1;stroke:#000000;stroke-width:0.264583;stroke-opacity:1"
       x="135.17567"
       y="74.293083"
       id="text5"><tspan
         id="tspan5"
         style="stroke-width:0.264583"
         x="135.17567"
         y="74.293083">Sediment</tspan></text>
    <text
       xml:space="preserve"
       style="font-size:3.175px;fill:#d2e2f3;fill-opacity:1;stroke:#000000;stroke-width:0.264583;stroke-opacity:1"
       x="135.13229"
       y="39.105709"
       id="text6"><tspan
         id="tspan6"
         style="stroke-width:0.264583"
         x="135.13229"
         y="39.105709">Active Layer</tspan></text>
    <circle
       style="fill:#f3d2d2;fill-opacity:1;stroke:#000000;stroke-width:0.264583;stroke-opacity:1"
       id="path6"
       cx="25.181017"
       cy="28.045536"
       r="1.1620899" />
    <circle
       style="fill:#f3d2d2;fill-opacity:1;stroke:#000000;stroke-width:0.264583;stroke-opacity:1"
       id="path7"
       cx="82.950623"
       cy="79.286606"
       r="2.2111323" />
    <circle
       style="fill:#f3d2d2;fill-opacity:1;stroke:#000000;stroke-width:0.264583;stroke-opacity:1"
       id="path8"
       cx="16.565609"
       cy="26.313551"
       r="1.0387638" />
    <circle
       style="fill:#f3d2d2;fill-opacity:1;stroke:#000000;stroke-width:0.264583;stroke-opacity:1"
       id="path6-2"
       cx="76.261452"
       cy="75.106468"
       r="1.1620899" />
    <circle
       style="fill:#f3d2d2;fill-opacity:1;stroke:#000000;stroke-width:0.264583;stroke-opacity:1"
       id="path7-9"
       cx="97.917274"
       cy="76.51313"
       r="2.2111323" />
    <circle
       style="fill:#f3d2d2;fill-opacity:1;stroke:#000000;stroke-width:0.264583;stroke-opacity:1"
       id="path8-1"
       cx="88.156509"
       cy="82.33815"
       r="1.0387638" />
    <circle
       style="fill:#f3d2d2;fill-opacity:1;stroke:#000000;stroke-width:0.264583;stroke-opacity:1"
       id="path6-9"
       cx="69.450684"
       cy="63.655079"
       r="1.1620899" />
    <circle
       style="fill:#f3d2d2;fill-opacity:1;stroke:#000000;stroke-width:0.264583;stroke-opacity:1"
       id="path7-3"
       cx="32.088715"
       cy="23.786644"
       r="2.2111323" />
    <circle
       style="fill:#f3d2d2;fill-opacity:1;stroke:#000000;stroke-width:0.264583;stroke-opacity:1"
       id="path8-6"
       cx="67.617737"
       cy="59.971447"
       r="1.0387638" />
    <circle
       style="fill:#f3d2d2;fill-opacity:1;stroke:#000000;stroke-width:0.264583;stroke-opacity:1"
       id="path6-6"
       cx="64.091812"
       cy="51.262642"
       r="1.1620899" />
    <circle
       style="fill:#f3d2d2;fill-opacity:1;stroke:#000000;stroke-width:0.264583;stroke-opacity:1"
       id="path7-1"
       cx="114.31332"
       cy="61.461872"
       r="2.2111323" />
    <circle
       style="fill:#f3d2d2;fill-opacity:1;stroke:#000000;stroke-width:0.264583;stroke-opacity:1"
       id="path8-8"
       cx="109.15503"
       cy="66.85791"
       r="1.0387638" />
    <circle
       style="fill:#f3d2d2;fill-opacity:1;stroke:#000000;stroke-width:0.264583;stroke-opacity:1"
       id="path6-0"
       cx="57.892822"
       cy="38.877586"
       r="1.1620899" />
    <circle
       style="fill:#f3d2d2;fill-opacity:1;stroke:#000000;stroke-width:0.264583;stroke-opacity:1"
       id="path7-2"
       cx="50.478882"
       cy="30.606024"
       r="2.2111323" />
    <circle
       style="fill:#f3d2d2;fill-opacity:1;stroke:#000000;stroke-width:0.264583;stroke-opacity:1"
       id="path8-3"
       cx="121.56162"
       cy="50.628651"
       r="1.0387638" />
  </g>
</svg>
