<?xml version="1.0" encoding="UTF-8" standalone="no"?>
<!-- Created with Inkscape (http://www.inkscape.org/) -->

<svg
   width="94.572052mm"
   height="96.630791mm"
   viewBox="0 0 94.572052 96.630782"
   version="1.1"
   id="svg1"
   xml:space="preserve"
   xmlns="http://www.w3.org/2000/svg"
   xmlns:svg="http://www.w3.org/2000/svg"><defs
     id="defs1"><clipPath
       clipPathUnits="userSpaceOnUse"
       id="clipPath35"><path
         id="path36"
         style="display:inline;fill:#000000;fill-opacity:0.618081;stroke:none;stroke-width:0.899996;stroke-dasharray:none"
         d="m 25.771113,22.282146 c -0.275127,0.0081 -0.533451,0.04983 -0.771012,0.131258 -2.864939,0.981964 -10.246023,4.174539 -5.000212,23.243026 3.529982,12.831456 5.14706,18.639658 5.446179,27.495995 0.308274,9.127281 5.435266,20.838287 8.608777,24.355102 3.17351,3.516823 12.812646,9.048073 20.944974,12.492263 3.333335,4.10071 5.731386,5.90041 10.000425,5.90041 4.269039,0 6.666571,-1.79969 9.999906,-5.90041 8.132328,-3.44418 17.771464,-8.97544 20.944975,-12.492263 3.17351,-3.516802 8.300505,-15.227821 8.608775,-24.355102 0.29912,-8.856337 1.9162,-14.664539 5.44618,-27.495995 5.24582,-19.068487 -2.13527,-22.261062 -5.00021,-23.243026 -2.53398,-0.868525 -7.438723,2.749944 -9.721371,4.151685 -6.906488,4.241159 -15.278656,15.426449 -15.278656,15.426449 -4.999998,-0.464214 -8.016652,-1.118796 -14.999599,-1.118796 -6.98295,0 -10.00012,0.654582 -15.000118,1.118796 0,0 -8.37165,-11.18529 -15.278138,-15.426449 -2.068651,-1.270328 -6.291314,-4.36103 -8.950875,-4.282943 z m 23.132439,50.596396 c 1.951469,0.07289 3.613007,0.802774 5.059638,3.418911 1.928849,3.488185 0.536919,7.335988 0.536919,7.335988 0,0 -6.98187,1.396368 -9.685714,-0.46664 -2.703875,-1.863008 -3.135209,-8.281665 -3.135209,-8.281665 0,0 2.303005,-1.601271 5.173327,-1.905825 0.717581,-0.07614 1.400545,-0.125066 2.051039,-0.100769 z m 32.193383,0 c 0.650489,-0.02429 1.332942,0.02463 2.050521,0.100769 2.870325,0.304554 5.173327,1.905825 5.173327,1.905825 0,0 -0.431345,6.418657 -3.13521,8.281665 -2.703843,1.863011 -9.685197,0.46664 -9.685197,0.46664 0,0 -1.392444,-3.847803 0.536403,-7.335988 1.446633,-2.616137 3.108685,-3.346019 5.060156,-3.418911 z M 59.602641,98.243918 c 1.352994,0.02029 5.397603,1.524971 5.397603,1.524971 0,0 4.044093,-1.50468 5.397087,-1.524971 1.352995,-0.02029 2.434992,0.60978 2.434992,0.60978 -0.131622,1.158262 -0.78945,2.053332 -1.97404,2.685112 0,0 -1.641631,-1.00722 -2.329572,-0.82941 -0.68794,0.17781 -1.058116,0.70917 -1.184942,1.34255 -0.126825,0.63339 0.671277,1.97456 0.671277,1.97456 -0.88951,0.24353 -1.741468,0.7849 -2.556433,1.62419 l 0.0072,1.68414 c 1.385202,1.02811 3.47971,1.19048 5.233273,1.75544 -1.91335,-0.0805 -3.714636,0.16554 -5.698876,-1.16943 v -1.76217 c -0.0041,-0.005 -0.0083,-0.009 -0.01241,-0.0134 l 0.01188,0.0134 v 1.76217 c -1.984241,1.33497 -3.785526,1.08893 -5.698877,1.16943 1.753563,-0.56496 3.848074,-0.72733 5.233273,-1.75544 l 0.0072,-1.66399 c -0.815642,-0.84037 -1.666248,-1.40064 -2.556433,-1.64434 0,0 0.798102,-1.34118 0.671277,-1.97456 -0.126826,-0.63339 -0.496483,-1.16474 -1.184423,-1.34255 -0.687941,-0.17781 -2.329575,0.82941 -2.329575,0.82941 -1.184587,-0.63178 -1.842934,-1.52684 -1.974556,-2.685112 0,0 1.082003,-0.630073 2.434995,-0.60978 z" /></clipPath></defs><g
     id="layer2"
     style="display:inline;opacity:1"
     transform="translate(-17.71396,-20.761634)"><g
       id="g18"
       clip-path="url(#clipPath35)"
       style="opacity:1"
       transform="translate(0,-1.0583333)"><rect
         style="fill:#4477aa;fill-opacity:1;stroke:#000000;stroke-width:0.2;stroke-dasharray:none;stroke-opacity:1"
         id="rect7"
         width="100.00001"
         height="107.50191"
         x="15.000001"
         y="17.498083" /><path
         style="fill:#ee6677;fill-opacity:1;stroke:#000000;stroke-width:0.2;stroke-dasharray:none;stroke-opacity:1"
         d="m 15,103.22528 c 0,0 8.443169,-8.128378 13.85621,-8.572721 7.935788,-0.651429 14.204244,10.178951 22.091505,9.087081 6.419126,-0.88863 8.860755,-11.222913 15.294118,-12.001808 9.920822,-1.201126 17.507272,14.234328 27.320262,12.344718 10.122535,-1.94922 21.437915,-22.289071 21.437915,-22.289071 L 115,17.498083 H 15 Z"
         id="path8" /><path
         style="fill:#ccbb44;fill-opacity:1;stroke:#000000;stroke-width:0.2;stroke-dasharray:none;stroke-opacity:1"
         d="m 15,94.481104 c 0,0 12.019893,-10.207501 19.346406,-10.458719 7.033095,-0.241157 12.22422,9.545405 19.215687,8.744174 6.988435,-0.800883 9.7983,-11.674576 16.732027,-12.859079 6.689735,-1.14282 12.737402,7.886428 19.346406,6.343812 C 101.16831,83.560578 115.00001,61.390409 115.00001,61.390409 L 115,17.498083 H 15 Z"
         id="path9" /><path
         style="fill:#4477aa;fill-opacity:1;stroke:#000000;stroke-width:0.2;stroke-dasharray:none;stroke-opacity:1"
         d="m 15,67.391309 c 0,0 5.70579,9.951307 10.718955,11.315991 4.375842,1.191191 8.558071,-3.333447 13.071895,-3.771998 5.877125,-0.571005 12.026133,3.351912 17.647059,1.543091 7.929968,-2.551874 11.352049,-12.881852 18.95425,-16.288169 7.10053,-3.181533 15.934573,-0.143214 23.137256,-3.08618 6.351375,-2.595129 16.470595,-12.344713 16.470595,-12.344713 L 115,17.498083 H 15 Z"
         id="path10" /><path
         style="fill:#ee6677;fill-opacity:1;stroke:#000000;stroke-width:0.2;stroke-dasharray:none;stroke-opacity:1"
         d="m 15,60.361679 c 0,0 17.75973,-19.782904 29.150327,-18.34562 7.105462,0.896578 7.64493,14.890229 14.771242,15.60235 7.901377,0.789574 11.990957,-11.068249 19.477127,-13.71635 5.681392,-2.009694 12.150605,0.08097 18.039215,-1.200181 6.464959,-1.406548 18.562099,-7.029631 18.562099,-7.029631 L 115,17.498083 H 15 Z"
         id="path11" /></g><path
       id="path29"
       style="display:inline;fill:none;fill-opacity:0.618081;stroke:#000000;stroke-width:0.9;stroke-dasharray:none;stroke-opacity:1"
       d="m 25.771113,21.223812 c -0.275127,0.0081 -0.533451,0.04983 -0.771012,0.131258 -2.864939,0.981964 -10.246023,4.174539 -5.000212,23.243026 3.529982,12.831456 5.14706,18.639658 5.446179,27.495995 0.308274,9.127281 5.435266,20.838287 8.608777,24.355102 3.17351,3.51682 12.812646,9.048067 20.944974,12.492257 3.333335,4.10071 5.731386,5.90041 10.000425,5.90041 4.269039,0 6.666571,-1.79969 9.999906,-5.90041 8.132328,-3.44418 17.771464,-8.975437 20.944975,-12.492257 3.17351,-3.516802 8.300505,-15.227821 8.608775,-24.355102 0.29912,-8.856337 1.9162,-14.664539 5.44618,-27.495995 5.24582,-19.068487 -2.13527,-22.261062 -5.00021,-23.243026 -2.53398,-0.868525 -7.438723,2.749944 -9.721371,4.151685 -6.906488,4.241159 -15.278656,15.426449 -15.278656,15.426449 -4.999998,-0.464214 -8.016652,-1.118796 -14.999599,-1.118796 -6.98295,0 -10.00012,0.654582 -15.000118,1.118796 0,0 -8.37165,-11.18529 -15.278138,-15.426449 -2.068651,-1.270328 -6.291314,-4.36103 -8.950875,-4.282943 z m 23.132439,50.596396 c 1.951469,0.07289 3.613007,0.802774 5.059638,3.418911 1.928849,3.488185 0.536919,7.335988 0.536919,7.335988 0,0 -6.98187,1.396368 -9.685714,-0.46664 -2.703875,-1.863008 -3.135209,-8.281665 -3.135209,-8.281665 0,0 2.303005,-1.601271 5.173327,-1.905825 0.717581,-0.07614 1.400545,-0.125066 2.051039,-0.100769 z m 32.193383,0 c 0.650489,-0.02429 1.332942,0.02463 2.050521,0.100769 2.870325,0.304554 5.173327,1.905825 5.173327,1.905825 0,0 -0.431345,6.418657 -3.13521,8.281665 -2.703843,1.863011 -9.685197,0.46664 -9.685197,0.46664 0,0 -1.392444,-3.847803 0.536403,-7.335988 1.446633,-2.616137 3.108685,-3.346019 5.060156,-3.418911 z M 59.602641,97.185584 c 1.352994,0.02029 5.397603,1.524971 5.397603,1.524971 0,0 4.044093,-1.50468 5.397087,-1.524971 1.352995,-0.02029 2.434992,0.60978 2.434992,0.60978 -0.131622,1.158262 -0.78945,2.053329 -1.97404,2.685106 0,0 -1.641631,-1.007217 -2.329572,-0.829407 -0.68794,0.17781 -1.058116,0.709167 -1.184942,1.342547 -0.126825,0.63339 0.671277,1.97456 0.671277,1.97456 -0.88951,0.24353 -1.741468,0.7849 -2.556433,1.62419 l 0.0072,1.68414 c 1.385203,1.02811 3.557491,1.54049 5.466616,1.63877 -2.17764,0.72847 -3.947979,0.28221 -5.932219,-1.05276 v -1.76217 c -0.0041,-0.005 -0.0083,-0.009 -0.01241,-0.0134 l 0.01188,0.0134 v 1.76217 c -1.98424,1.33497 -3.671457,1.78528 -5.64054,0.93609 1.986906,0.25174 3.789737,-0.49399 5.174937,-1.5221 l 0.0072,-1.66399 c -0.815642,-0.84037 -1.666248,-1.40064 -2.556433,-1.64434 0,0 0.798102,-1.34118 0.671277,-1.97456 -0.126826,-0.63339 -0.496483,-1.164737 -1.184423,-1.342547 -0.687941,-0.17781 -2.329575,0.829407 -2.329575,0.829407 -1.184587,-0.631777 -1.842934,-1.526834 -1.974556,-2.685106 0,0 1.082003,-0.630073 2.434995,-0.60978 z" /></g><g
     id="layer3"
     transform="translate(-17.71396,-20.761634)"
     style="display:inline"><g
       id="g34"
       style="stroke:#000000;stroke-width:0.4;stroke-dasharray:none;stroke-opacity:1"
       transform="translate(0,-1.0583333)"><path
         style="display:inline;opacity:1;fill:#4477aa;fill-opacity:1;stroke:#000000;stroke-width:0.4;stroke-dasharray:none;stroke-opacity:1"
         d="m 61.085628,54.013134 c 2.275737,2.294487 2.291877,4.703972 0.04842,7.166152 -3.160854,-2.41689 -2.077662,-5.715892 -0.04842,-7.166152 z m -32.17087,0 c -2.275737,2.294487 -2.291877,4.703972 -0.04842,7.166152 3.160854,-2.41689 2.077662,-5.715892 0.04842,-7.166152 z m -2e-6,0 c -2.275737,2.294487 -2.291877,4.703972 -0.04842,7.166152 3.160854,-2.41689 2.077662,-5.715892 0.04842,-7.166152 z m 32.17087,0 c 2.275737,2.294487 2.291877,4.703972 0.04842,7.166152 -3.160854,-2.41689 -2.077662,-5.715892 -0.04842,-7.166152 z"
         id="path37"
         transform="translate(19.999813,21.058146)" /><path
         style="fill:#ffffff;fill-opacity:1;stroke:#000000;stroke-width:0.4;stroke-dasharray:none;stroke-opacity:1"
         d="m 84.100873,97.897244 c -0.359025,-1.32399 14.176278,-3.832195 23.232567,-0.650769 -14.124378,-2.778103 -22.873542,1.974759 -23.232567,0.650769 z m -38.201736,0 c 0.359025,-1.32399 -14.176278,-3.832195 -23.232567,-0.650769 14.124378,-2.778103 22.873542,1.974759 23.232567,0.650769 z"
         id="path30" /><path
         style="fill:#ffffff;fill-opacity:1;stroke:#000000;stroke-width:0.4;stroke-dasharray:none;stroke-opacity:1"
         d="M 79.02485,101.99711 C 78.876016,100.236 96.085445,99.862008 104.0145,110.5873 90.684494,98.061691 79.173684,103.75822 79.02485,101.99711 Z m -28.04969,0 c 0.148834,-1.76111 -17.060595,-2.135102 -24.98965,8.59019 13.330006,-12.525609 24.840816,-6.82908 24.98965,-8.59019 z"
         id="path31" /><path
         style="fill:#ffffff;fill-opacity:1;stroke:#000000;stroke-width:0.4;stroke-dasharray:none;stroke-opacity:1"
         d="m 75.31545,104.47004 c 0.121299,-1.74356 15.710446,2.19934 21.735791,13.86145 C 86.020102,103.48306 75.194151,106.2136 75.31545,104.47004 Z m -20.63089,0 c -0.121299,-1.74356 -15.710446,2.19934 -21.735791,13.86145 11.031139,-14.84843 21.85709,-12.11789 21.735791,-13.86145 z"
         id="path32" /><path
         style="fill:#ffffff;fill-opacity:1;stroke:#000000;stroke-width:0.4;stroke-dasharray:none;stroke-opacity:1"
         d="m 76.682071,66.530025 c 1.048054,1.071538 4.767698,-6.251862 12.169441,-9.631428 -5.504053,1.811011 -13.217495,8.55989 -12.169441,9.631428 z m -23.364132,0 c -1.048054,1.071538 -4.767698,-6.251862 -12.169441,-9.631428 5.504053,1.811011 13.217495,8.55989 12.169441,9.631428 z"
         id="path33" /><path
         style="fill:#ffffff;fill-opacity:1;stroke:#000000;stroke-width:0.4;stroke-dasharray:none;stroke-opacity:1"
         d="m 76.48684,63.536471 c 1.260606,0.7102 3.511983,-7.039493 13.340829,-16.464534 -8.948524,8.131794 -14.601435,15.754334 -13.340829,16.464534 z m -22.97367,0 c -1.260606,0.7102 -3.511983,-7.039493 -13.340829,-16.464534 8.948524,8.131794 14.601435,15.754334 13.340829,16.464534 z"
         id="path34" /></g></g></svg>
