<?xml version="1.0" encoding="utf-8"?>
<svg xmlns="http://www.w3.org/2000/svg" xmlns:xlink="http://www.w3.org/1999/xlink" width="600" height="400" viewBox="0 0 2400 1600">
<defs>
  <clipPath id="clip840">
    <rect x="0" y="0" width="2400" height="1600"/>
  </clipPath>
</defs>
<path clip-path="url(#clip840)" d="M0 1600 L2400 1600 L2400 0 L0 0  Z" fill="#ffffff" fill-rule="evenodd" fill-opacity="1"/>
<defs>
  <clipPath id="clip841">
    <rect x="480" y="0" width="1681" height="1600"/>
  </clipPath>
</defs>
<path clip-path="url(#clip840)" d="M232.389 1423.18 L2352.76 1423.18 L2352.76 47.2441 L232.389 47.2441  Z" fill="#ffffff" fill-rule="evenodd" fill-opacity="1"/>
<defs>
  <clipPath id="clip842">
    <rect x="232" y="47" width="2121" height="1377"/>
  </clipPath>
</defs>
<polyline clip-path="url(#clip842)" style="stroke:#000000; stroke-linecap:round; stroke-linejoin:round; stroke-width:2; stroke-opacity:0.1; fill:none" points="292.4,1423.18 292.4,47.2441 "/>
<polyline clip-path="url(#clip842)" style="stroke:#000000; stroke-linecap:round; stroke-linejoin:round; stroke-width:2; stroke-opacity:0.1; fill:none" points="768.673,1423.18 768.673,47.2441 "/>
<polyline clip-path="url(#clip842)" style="stroke:#000000; stroke-linecap:round; stroke-linejoin:round; stroke-width:2; stroke-opacity:0.1; fill:none" points="1244.95,1423.18 1244.95,47.2441 "/>
<polyline clip-path="url(#clip842)" style="stroke:#000000; stroke-linecap:round; stroke-linejoin:round; stroke-width:2; stroke-opacity:0.1; fill:none" points="1721.22,1423.18 1721.22,47.2441 "/>
<polyline clip-path="url(#clip842)" style="stroke:#000000; stroke-linecap:round; stroke-linejoin:round; stroke-width:2; stroke-opacity:0.1; fill:none" points="2197.49,1423.18 2197.49,47.2441 "/>
<polyline clip-path="url(#clip842)" style="stroke:#000000; stroke-linecap:round; stroke-linejoin:round; stroke-width:2; stroke-opacity:0.1; fill:none" points="292.4,1423.18 292.4,47.2441 "/>
<polyline clip-path="url(#clip842)" style="stroke:#000000; stroke-linecap:round; stroke-linejoin:round; stroke-width:2; stroke-opacity:0.1; fill:none" points="768.673,1423.18 768.673,47.2441 "/>
<polyline clip-path="url(#clip842)" style="stroke:#000000; stroke-linecap:round; stroke-linejoin:round; stroke-width:2; stroke-opacity:0.1; fill:none" points="1244.95,1423.18 1244.95,47.2441 "/>
<polyline clip-path="url(#clip842)" style="stroke:#000000; stroke-linecap:round; stroke-linejoin:round; stroke-width:2; stroke-opacity:0.1; fill:none" points="1721.22,1423.18 1721.22,47.2441 "/>
<polyline clip-path="url(#clip842)" style="stroke:#000000; stroke-linecap:round; stroke-linejoin:round; stroke-width:2; stroke-opacity:0.1; fill:none" points="2197.49,1423.18 2197.49,47.2441 "/>
<polyline clip-path="url(#clip840)" style="stroke:#000000; stroke-linecap:round; stroke-linejoin:round; stroke-width:4; stroke-opacity:1; fill:none" points="232.389,1423.18 2352.76,1423.18 "/>
<polyline clip-path="url(#clip840)" style="stroke:#000000; stroke-linecap:round; stroke-linejoin:round; stroke-width:4; stroke-opacity:1; fill:none" points="232.389,47.2441 2352.76,47.2441 "/>
<polyline clip-path="url(#clip840)" style="stroke:#000000; stroke-linecap:round; stroke-linejoin:round; stroke-width:4; stroke-opacity:1; fill:none" points="292.4,1423.18 292.4,1404.28 "/>
<polyline clip-path="url(#clip840)" style="stroke:#000000; stroke-linecap:round; stroke-linejoin:round; stroke-width:4; stroke-opacity:1; fill:none" points="768.673,1423.18 768.673,1404.28 "/>
<polyline clip-path="url(#clip840)" style="stroke:#000000; stroke-linecap:round; stroke-linejoin:round; stroke-width:4; stroke-opacity:1; fill:none" points="1244.95,1423.18 1244.95,1404.28 "/>
<polyline clip-path="url(#clip840)" style="stroke:#000000; stroke-linecap:round; stroke-linejoin:round; stroke-width:4; stroke-opacity:1; fill:none" points="1721.22,1423.18 1721.22,1404.28 "/>
<polyline clip-path="url(#clip840)" style="stroke:#000000; stroke-linecap:round; stroke-linejoin:round; stroke-width:4; stroke-opacity:1; fill:none" points="2197.49,1423.18 2197.49,1404.28 "/>
<polyline clip-path="url(#clip840)" style="stroke:#000000; stroke-linecap:round; stroke-linejoin:round; stroke-width:4; stroke-opacity:1; fill:none" points="292.4,47.2441 292.4,66.1417 "/>
<polyline clip-path="url(#clip840)" style="stroke:#000000; stroke-linecap:round; stroke-linejoin:round; stroke-width:4; stroke-opacity:1; fill:none" points="768.673,47.2441 768.673,66.1417 "/>
<polyline clip-path="url(#clip840)" style="stroke:#000000; stroke-linecap:round; stroke-linejoin:round; stroke-width:4; stroke-opacity:1; fill:none" points="1244.95,47.2441 1244.95,66.1417 "/>
<polyline clip-path="url(#clip840)" style="stroke:#000000; stroke-linecap:round; stroke-linejoin:round; stroke-width:4; stroke-opacity:1; fill:none" points="1721.22,47.2441 1721.22,66.1417 "/>
<polyline clip-path="url(#clip840)" style="stroke:#000000; stroke-linecap:round; stroke-linejoin:round; stroke-width:4; stroke-opacity:1; fill:none" points="2197.49,47.2441 2197.49,66.1417 "/>
<path clip-path="url(#clip840)" d="M292.4 1454.1 Q288.789 1454.1 286.96 1457.66 Q285.154 1461.2 285.154 1468.33 Q285.154 1475.44 286.96 1479.01 Q288.789 1482.55 292.4 1482.55 Q296.034 1482.55 297.84 1479.01 Q299.668 1475.44 299.668 1468.33 Q299.668 1461.2 297.84 1457.66 Q296.034 1454.1 292.4 1454.1 M292.4 1450.39 Q298.21 1450.39 301.265 1455 Q304.344 1459.58 304.344 1468.33 Q304.344 1477.06 301.265 1481.67 Q298.21 1486.25 292.4 1486.25 Q286.59 1486.25 283.511 1481.67 Q280.455 1477.06 280.455 1468.33 Q280.455 1459.58 283.511 1455 Q286.59 1450.39 292.4 1450.39 Z" fill="#000000" fill-rule="nonzero" fill-opacity="1" /><path clip-path="url(#clip840)" d="M743.36 1481.64 L750.999 1481.64 L750.999 1455.28 L742.689 1456.95 L742.689 1452.69 L750.953 1451.02 L755.629 1451.02 L755.629 1481.64 L763.267 1481.64 L763.267 1485.58 L743.36 1485.58 L743.36 1481.64 Z" fill="#000000" fill-rule="nonzero" fill-opacity="1" /><path clip-path="url(#clip840)" d="M782.712 1454.1 Q779.101 1454.1 777.272 1457.66 Q775.466 1461.2 775.466 1468.33 Q775.466 1475.44 777.272 1479.01 Q779.101 1482.55 782.712 1482.55 Q786.346 1482.55 788.152 1479.01 Q789.98 1475.44 789.98 1468.33 Q789.98 1461.2 788.152 1457.66 Q786.346 1454.1 782.712 1454.1 M782.712 1450.39 Q788.522 1450.39 791.578 1455 Q794.656 1459.58 794.656 1468.33 Q794.656 1477.06 791.578 1481.67 Q788.522 1486.25 782.712 1486.25 Q776.902 1486.25 773.823 1481.67 Q770.767 1477.06 770.767 1468.33 Q770.767 1459.58 773.823 1455 Q776.902 1450.39 782.712 1450.39 Z" fill="#000000" fill-rule="nonzero" fill-opacity="1" /><path clip-path="url(#clip840)" d="M1223.72 1481.64 L1240.04 1481.64 L1240.04 1485.58 L1218.09 1485.58 L1218.09 1481.64 Q1220.76 1478.89 1225.34 1474.26 Q1229.95 1469.61 1231.13 1468.27 Q1233.37 1465.74 1234.25 1464.01 Q1235.15 1462.25 1235.15 1460.56 Q1235.15 1457.8 1233.21 1456.07 Q1231.29 1454.33 1228.19 1454.33 Q1225.99 1454.33 1223.53 1455.09 Q1221.1 1455.86 1218.33 1457.41 L1218.33 1452.69 Q1221.15 1451.55 1223.6 1450.97 Q1226.06 1450.39 1228.09 1450.39 Q1233.46 1450.39 1236.66 1453.08 Q1239.85 1455.77 1239.85 1460.26 Q1239.85 1462.39 1239.04 1464.31 Q1238.26 1466.2 1236.15 1468.8 Q1235.57 1469.47 1232.47 1472.69 Q1229.37 1475.88 1223.72 1481.64 Z" fill="#000000" fill-rule="nonzero" fill-opacity="1" /><path clip-path="url(#clip840)" d="M1259.85 1454.1 Q1256.24 1454.1 1254.41 1457.66 Q1252.61 1461.2 1252.61 1468.33 Q1252.61 1475.44 1254.41 1479.01 Q1256.24 1482.55 1259.85 1482.55 Q1263.49 1482.55 1265.29 1479.01 Q1267.12 1475.44 1267.12 1468.33 Q1267.12 1461.2 1265.29 1457.66 Q1263.49 1454.1 1259.85 1454.1 M1259.85 1450.39 Q1265.66 1450.39 1268.72 1455 Q1271.8 1459.58 1271.8 1468.33 Q1271.8 1477.06 1268.72 1481.67 Q1265.66 1486.25 1259.85 1486.25 Q1254.04 1486.25 1250.96 1481.67 Q1247.91 1477.06 1247.91 1468.33 Q1247.91 1459.58 1250.96 1455 Q1254.04 1450.39 1259.85 1450.39 Z" fill="#000000" fill-rule="nonzero" fill-opacity="1" /><path clip-path="url(#clip840)" d="M1710.06 1466.95 Q1713.42 1467.66 1715.29 1469.93 Q1717.19 1472.2 1717.19 1475.53 Q1717.19 1480.65 1713.67 1483.45 Q1710.15 1486.25 1703.67 1486.25 Q1701.5 1486.25 1699.18 1485.81 Q1696.89 1485.39 1694.44 1484.54 L1694.44 1480.02 Q1696.38 1481.16 1698.7 1481.74 Q1701.01 1482.32 1703.53 1482.32 Q1707.93 1482.32 1710.22 1480.58 Q1712.54 1478.84 1712.54 1475.53 Q1712.54 1472.48 1710.38 1470.77 Q1708.26 1469.03 1704.44 1469.03 L1700.41 1469.03 L1700.41 1465.19 L1704.62 1465.19 Q1708.07 1465.19 1709.9 1463.82 Q1711.73 1462.43 1711.73 1459.84 Q1711.73 1457.18 1709.83 1455.77 Q1707.95 1454.33 1704.44 1454.33 Q1702.51 1454.33 1700.32 1454.75 Q1698.12 1455.16 1695.48 1456.04 L1695.48 1451.88 Q1698.14 1451.14 1700.45 1450.77 Q1702.79 1450.39 1704.85 1450.39 Q1710.18 1450.39 1713.28 1452.83 Q1716.38 1455.23 1716.38 1459.35 Q1716.38 1462.22 1714.74 1464.21 Q1713.09 1466.18 1710.06 1466.95 Z" fill="#000000" fill-rule="nonzero" fill-opacity="1" /><path clip-path="url(#clip840)" d="M1736.06 1454.1 Q1732.44 1454.1 1730.62 1457.66 Q1728.81 1461.2 1728.81 1468.33 Q1728.81 1475.44 1730.62 1479.01 Q1732.44 1482.55 1736.06 1482.55 Q1739.69 1482.55 1741.5 1479.01 Q1743.32 1475.44 1743.32 1468.33 Q1743.32 1461.2 1741.5 1457.66 Q1739.69 1454.1 1736.06 1454.1 M1736.06 1450.39 Q1741.87 1450.39 1744.92 1455 Q1748 1459.58 1748 1468.33 Q1748 1477.06 1744.92 1481.67 Q1741.87 1486.25 1736.06 1486.25 Q1730.25 1486.25 1727.17 1481.67 Q1724.11 1477.06 1724.11 1468.33 Q1724.11 1459.58 1727.17 1455 Q1730.25 1450.39 1736.06 1450.39 Z" fill="#000000" fill-rule="nonzero" fill-opacity="1" /><path clip-path="url(#clip840)" d="M2185.66 1455.09 L2173.86 1473.54 L2185.66 1473.54 L2185.66 1455.09 M2184.44 1451.02 L2190.32 1451.02 L2190.32 1473.54 L2195.25 1473.54 L2195.25 1477.43 L2190.32 1477.43 L2190.32 1485.58 L2185.66 1485.58 L2185.66 1477.43 L2170.06 1477.43 L2170.06 1472.92 L2184.44 1451.02 Z" fill="#000000" fill-rule="nonzero" fill-opacity="1" /><path clip-path="url(#clip840)" d="M2212.98 1454.1 Q2209.37 1454.1 2207.54 1457.66 Q2205.73 1461.2 2205.73 1468.33 Q2205.73 1475.44 2207.54 1479.01 Q2209.37 1482.55 2212.98 1482.55 Q2216.61 1482.55 2218.42 1479.01 Q2220.25 1475.44 2220.25 1468.33 Q2220.25 1461.2 2218.42 1457.66 Q2216.61 1454.1 2212.98 1454.1 M2212.98 1450.39 Q2218.79 1450.39 2221.84 1455 Q2224.92 1459.58 2224.92 1468.33 Q2224.92 1477.06 2221.84 1481.67 Q2218.79 1486.25 2212.98 1486.25 Q2207.17 1486.25 2204.09 1481.67 Q2201.03 1477.06 2201.03 1468.33 Q2201.03 1459.58 2204.09 1455 Q2207.17 1450.39 2212.98 1450.39 Z" fill="#000000" fill-rule="nonzero" fill-opacity="1" /><path clip-path="url(#clip840)" d="M1070.7 1522.08 L1070.7 1528.35 Q1067.04 1526.6 1063.79 1525.74 Q1060.54 1524.88 1057.52 1524.88 Q1052.27 1524.88 1049.4 1526.92 Q1046.57 1528.96 1046.57 1532.71 Q1046.57 1535.87 1048.45 1537.49 Q1050.36 1539.08 1055.64 1540.07 L1059.52 1540.86 Q1066.72 1542.23 1070.12 1545.7 Q1073.56 1549.14 1073.56 1554.93 Q1073.56 1561.84 1068.91 1565.4 Q1064.3 1568.97 1055.35 1568.97 Q1051.98 1568.97 1048.16 1568.2 Q1044.37 1567.44 1040.3 1565.94 L1040.3 1559.32 Q1044.21 1561.52 1047.97 1562.63 Q1051.73 1563.75 1055.35 1563.75 Q1060.86 1563.75 1063.85 1561.58 Q1066.84 1559.42 1066.84 1555.41 Q1066.84 1551.91 1064.68 1549.93 Q1062.55 1547.96 1057.65 1546.97 L1053.73 1546.21 Q1046.54 1544.78 1043.32 1541.72 Q1040.11 1538.67 1040.11 1533.22 Q1040.11 1526.92 1044.53 1523.29 Q1048.99 1519.66 1056.79 1519.66 Q1060.13 1519.66 1063.6 1520.27 Q1067.07 1520.87 1070.7 1522.08 Z" fill="#000000" fill-rule="nonzero" fill-opacity="1" /><path clip-path="url(#clip840)" d="M1083.33 1518.52 L1089.19 1518.52 L1089.19 1568.04 L1083.33 1568.04 L1083.33 1518.52 Z" fill="#000000" fill-rule="nonzero" fill-opacity="1" /><path clip-path="url(#clip840)" d="M1115.26 1536.5 Q1110.55 1536.5 1107.81 1540.19 Q1105.07 1543.85 1105.07 1550.25 Q1105.07 1556.65 1107.78 1560.34 Q1110.51 1564 1115.26 1564 Q1119.93 1564 1122.67 1560.31 Q1125.41 1556.62 1125.41 1550.25 Q1125.41 1543.92 1122.67 1540.23 Q1119.93 1536.5 1115.26 1536.5 M1115.26 1531.54 Q1122.89 1531.54 1127.26 1536.5 Q1131.62 1541.47 1131.62 1550.25 Q1131.62 1559 1127.26 1564 Q1122.89 1568.97 1115.26 1568.97 Q1107.59 1568.97 1103.22 1564 Q1098.9 1559 1098.9 1550.25 Q1098.9 1541.47 1103.22 1536.5 Q1107.59 1531.54 1115.26 1531.54 Z" fill="#000000" fill-rule="nonzero" fill-opacity="1" /><path clip-path="url(#clip840)" d="M1146.99 1562.7 L1146.99 1581.6 L1141.1 1581.6 L1141.1 1532.4 L1146.99 1532.4 L1146.99 1537.81 Q1148.83 1534.62 1151.64 1533.1 Q1154.47 1531.54 1158.38 1531.54 Q1164.88 1531.54 1168.92 1536.69 Q1172.99 1541.85 1172.99 1550.25 Q1172.99 1558.65 1168.92 1563.81 Q1164.88 1568.97 1158.38 1568.97 Q1154.47 1568.97 1151.64 1567.44 Q1148.83 1565.88 1146.99 1562.7 M1166.91 1550.25 Q1166.91 1543.79 1164.24 1540.13 Q1161.6 1536.44 1156.95 1536.44 Q1152.3 1536.44 1149.63 1540.13 Q1146.99 1543.79 1146.99 1550.25 Q1146.99 1556.71 1149.63 1560.4 Q1152.3 1564.07 1156.95 1564.07 Q1161.6 1564.07 1164.24 1560.4 Q1166.91 1556.71 1166.91 1550.25 Z" fill="#000000" fill-rule="nonzero" fill-opacity="1" /><path clip-path="url(#clip840)" d="M1213.19 1548.76 L1213.19 1551.62 L1186.27 1551.62 Q1186.65 1557.67 1189.89 1560.85 Q1193.17 1564 1199 1564 Q1202.37 1564 1205.52 1563.17 Q1208.7 1562.35 1211.82 1560.69 L1211.82 1566.23 Q1208.67 1567.57 1205.36 1568.27 Q1202.05 1568.97 1198.65 1568.97 Q1190.12 1568.97 1185.12 1564 Q1180.15 1559.04 1180.15 1550.57 Q1180.15 1541.82 1184.86 1536.69 Q1189.61 1531.54 1197.63 1531.54 Q1204.82 1531.54 1208.99 1536.18 Q1213.19 1540.8 1213.19 1548.76 M1207.34 1547.04 Q1207.27 1542.23 1204.63 1539.37 Q1202.02 1536.5 1197.69 1536.5 Q1192.79 1536.5 1189.83 1539.27 Q1186.9 1542.04 1186.46 1547.07 L1207.34 1547.04 Z" fill="#000000" fill-rule="nonzero" fill-opacity="1" /><path clip-path="url(#clip840)" d="M1257.59 1518.58 Q1253.33 1525.9 1251.26 1533.06 Q1249.19 1540.23 1249.19 1547.58 Q1249.19 1554.93 1251.26 1562.16 Q1253.36 1569.35 1257.59 1576.64 L1252.5 1576.64 Q1247.73 1569.16 1245.34 1561.93 Q1242.98 1554.71 1242.98 1547.58 Q1242.98 1540.48 1245.34 1533.29 Q1247.69 1526.09 1252.5 1518.58 L1257.59 1518.58 Z" fill="#000000" fill-rule="nonzero" fill-opacity="1" /><path clip-path="url(#clip840)" d="M1292.41 1537.81 L1292.41 1518.52 L1298.27 1518.52 L1298.27 1568.04 L1292.41 1568.04 L1292.41 1562.7 Q1290.57 1565.88 1287.73 1567.44 Q1284.93 1568.97 1280.99 1568.97 Q1274.53 1568.97 1270.45 1563.81 Q1266.41 1558.65 1266.41 1550.25 Q1266.41 1541.85 1270.45 1536.69 Q1274.53 1531.54 1280.99 1531.54 Q1284.93 1531.54 1287.73 1533.1 Q1290.57 1534.62 1292.41 1537.81 M1272.46 1550.25 Q1272.46 1556.71 1275.1 1560.4 Q1277.77 1564.07 1282.42 1564.07 Q1287.07 1564.07 1289.74 1560.4 Q1292.41 1556.71 1292.41 1550.25 Q1292.41 1543.79 1289.74 1540.13 Q1287.07 1536.44 1282.42 1536.44 Q1277.77 1536.44 1275.1 1540.13 Q1272.46 1543.79 1272.46 1550.25 Z" fill="#000000" fill-rule="nonzero" fill-opacity="1" /><path clip-path="url(#clip840)" d="M1340.82 1548.76 L1340.82 1551.62 L1313.9 1551.62 Q1314.28 1557.67 1317.53 1560.85 Q1320.8 1564 1326.63 1564 Q1330 1564 1333.15 1563.17 Q1336.34 1562.35 1339.46 1560.69 L1339.46 1566.23 Q1336.31 1567.57 1332.99 1568.27 Q1329.68 1568.97 1326.28 1568.97 Q1317.75 1568.97 1312.75 1564 Q1307.79 1559.04 1307.79 1550.57 Q1307.79 1541.82 1312.5 1536.69 Q1317.24 1531.54 1325.26 1531.54 Q1332.45 1531.54 1336.62 1536.18 Q1340.82 1540.8 1340.82 1548.76 M1334.97 1547.04 Q1334.9 1542.23 1332.26 1539.37 Q1329.65 1536.5 1325.32 1536.5 Q1320.42 1536.5 1317.46 1539.27 Q1314.53 1542.04 1314.09 1547.07 L1334.97 1547.04 Z" fill="#000000" fill-rule="nonzero" fill-opacity="1" /><path clip-path="url(#clip840)" d="M1373.89 1549.81 Q1373.89 1543.44 1371.25 1539.94 Q1368.64 1536.44 1363.9 1536.44 Q1359.19 1536.44 1356.55 1539.94 Q1353.94 1543.44 1353.94 1549.81 Q1353.94 1556.14 1356.55 1559.64 Q1359.19 1563.14 1363.9 1563.14 Q1368.64 1563.14 1371.25 1559.64 Q1373.89 1556.14 1373.89 1549.81 M1379.75 1563.62 Q1379.75 1572.72 1375.71 1577.15 Q1371.67 1581.6 1363.33 1581.6 Q1360.24 1581.6 1357.5 1581.13 Q1354.77 1580.68 1352.19 1579.72 L1352.19 1574.03 Q1354.77 1575.43 1357.28 1576.1 Q1359.79 1576.76 1362.4 1576.76 Q1368.17 1576.76 1371.03 1573.74 Q1373.89 1570.75 1373.89 1564.67 L1373.89 1561.77 Q1372.08 1564.92 1369.25 1566.48 Q1366.41 1568.04 1362.47 1568.04 Q1355.91 1568.04 1351.9 1563.05 Q1347.89 1558.05 1347.89 1549.81 Q1347.89 1541.53 1351.9 1536.53 Q1355.91 1531.54 1362.47 1531.54 Q1366.41 1531.54 1369.25 1533.1 Q1372.08 1534.66 1373.89 1537.81 L1373.89 1532.4 L1379.75 1532.4 L1379.75 1563.62 Z" fill="#000000" fill-rule="nonzero" fill-opacity="1" /><path clip-path="url(#clip840)" d="M1412.47 1537.87 Q1411.48 1537.3 1410.31 1537.04 Q1409.16 1536.76 1407.76 1536.76 Q1402.79 1536.76 1400.12 1540 Q1397.48 1543.22 1397.48 1549.27 L1397.48 1568.04 L1391.59 1568.04 L1391.59 1532.4 L1397.48 1532.4 L1397.48 1537.93 Q1399.33 1534.69 1402.29 1533.13 Q1405.25 1531.54 1409.48 1531.54 Q1410.08 1531.54 1410.82 1531.63 Q1411.55 1531.7 1412.44 1531.85 L1412.47 1537.87 Z" fill="#000000" fill-rule="nonzero" fill-opacity="1" /><path clip-path="url(#clip840)" d="M1447.67 1548.76 L1447.67 1551.62 L1420.75 1551.62 Q1421.13 1557.67 1424.37 1560.85 Q1427.65 1564 1433.48 1564 Q1436.85 1564 1440 1563.17 Q1443.19 1562.35 1446.3 1560.69 L1446.3 1566.23 Q1443.15 1567.57 1439.84 1568.27 Q1436.53 1568.97 1433.13 1568.97 Q1424.6 1568.97 1419.6 1564 Q1414.64 1559.04 1414.64 1550.57 Q1414.64 1541.82 1419.35 1536.69 Q1424.09 1531.54 1432.11 1531.54 Q1439.3 1531.54 1443.47 1536.18 Q1447.67 1540.8 1447.67 1548.76 M1441.82 1547.04 Q1441.75 1542.23 1439.11 1539.37 Q1436.5 1536.5 1432.17 1536.5 Q1427.27 1536.5 1424.31 1539.27 Q1421.38 1542.04 1420.94 1547.07 L1441.82 1547.04 Z" fill="#000000" fill-rule="nonzero" fill-opacity="1" /><path clip-path="url(#clip840)" d="M1487.78 1548.76 L1487.78 1551.62 L1460.85 1551.62 Q1461.23 1557.67 1464.48 1560.85 Q1467.76 1564 1473.58 1564 Q1476.96 1564 1480.11 1563.17 Q1483.29 1562.35 1486.41 1560.69 L1486.41 1566.23 Q1483.26 1567.57 1479.95 1568.27 Q1476.64 1568.97 1473.23 1568.97 Q1464.7 1568.97 1459.7 1564 Q1454.74 1559.04 1454.74 1550.57 Q1454.74 1541.82 1459.45 1536.69 Q1464.19 1531.54 1472.21 1531.54 Q1479.41 1531.54 1483.58 1536.18 Q1487.78 1540.8 1487.78 1548.76 M1481.92 1547.04 Q1481.86 1542.23 1479.22 1539.37 Q1476.61 1536.5 1472.28 1536.5 Q1467.37 1536.5 1464.41 1539.27 Q1461.49 1542.04 1461.04 1547.07 L1481.92 1547.04 Z" fill="#000000" fill-rule="nonzero" fill-opacity="1" /><path clip-path="url(#clip840)" d="M1520.11 1533.45 L1520.11 1538.98 Q1517.63 1537.71 1514.96 1537.07 Q1512.28 1536.44 1509.42 1536.44 Q1505.06 1536.44 1502.86 1537.77 Q1500.7 1539.11 1500.7 1541.79 Q1500.7 1543.82 1502.26 1545 Q1503.82 1546.15 1508.53 1547.2 L1510.53 1547.64 Q1516.77 1548.98 1519.38 1551.43 Q1522.02 1553.85 1522.02 1558.21 Q1522.02 1563.17 1518.08 1566.07 Q1514.16 1568.97 1507.29 1568.97 Q1504.42 1568.97 1501.3 1568.39 Q1498.22 1567.85 1494.78 1566.74 L1494.78 1560.69 Q1498.03 1562.38 1501.18 1563.24 Q1504.33 1564.07 1507.42 1564.07 Q1511.55 1564.07 1513.78 1562.66 Q1516.01 1561.23 1516.01 1558.65 Q1516.01 1556.27 1514.39 1554.99 Q1512.79 1553.72 1507.35 1552.54 L1505.31 1552.07 Q1499.87 1550.92 1497.45 1548.56 Q1495.03 1546.18 1495.03 1542.04 Q1495.03 1537.01 1498.6 1534.27 Q1502.16 1531.54 1508.72 1531.54 Q1511.97 1531.54 1514.83 1532.01 Q1517.7 1532.49 1520.11 1533.45 Z" fill="#000000" fill-rule="nonzero" fill-opacity="1" /><path clip-path="url(#clip840)" d="M1530.43 1518.58 L1535.52 1518.58 Q1540.29 1526.09 1542.65 1533.29 Q1545.04 1540.48 1545.04 1547.58 Q1545.04 1554.71 1542.65 1561.93 Q1540.29 1569.16 1535.52 1576.64 L1530.43 1576.64 Q1534.66 1569.35 1536.73 1562.16 Q1538.83 1554.93 1538.83 1547.58 Q1538.83 1540.23 1536.73 1533.06 Q1534.66 1525.9 1530.43 1518.58 Z" fill="#000000" fill-rule="nonzero" fill-opacity="1" /><polyline clip-path="url(#clip842)" style="stroke:#000000; stroke-linecap:round; stroke-linejoin:round; stroke-width:2; stroke-opacity:0.1; fill:none" points="232.389,1391.15 2352.76,1391.15 "/>
<polyline clip-path="url(#clip842)" style="stroke:#000000; stroke-linecap:round; stroke-linejoin:round; stroke-width:2; stroke-opacity:0.1; fill:none" points="232.389,1007.33 2352.76,1007.33 "/>
<polyline clip-path="url(#clip842)" style="stroke:#000000; stroke-linecap:round; stroke-linejoin:round; stroke-width:2; stroke-opacity:0.1; fill:none" points="232.389,623.523 2352.76,623.523 "/>
<polyline clip-path="url(#clip842)" style="stroke:#000000; stroke-linecap:round; stroke-linejoin:round; stroke-width:2; stroke-opacity:0.1; fill:none" points="232.389,239.711 2352.76,239.711 "/>
<polyline clip-path="url(#clip842)" style="stroke:#000000; stroke-linecap:round; stroke-linejoin:round; stroke-width:2; stroke-opacity:0.1; fill:none" points="232.389,1391.15 2352.76,1391.15 "/>
<polyline clip-path="url(#clip842)" style="stroke:#000000; stroke-linecap:round; stroke-linejoin:round; stroke-width:2; stroke-opacity:0.1; fill:none" points="232.389,1007.33 2352.76,1007.33 "/>
<polyline clip-path="url(#clip842)" style="stroke:#000000; stroke-linecap:round; stroke-linejoin:round; stroke-width:2; stroke-opacity:0.1; fill:none" points="232.389,623.523 2352.76,623.523 "/>
<polyline clip-path="url(#clip842)" style="stroke:#000000; stroke-linecap:round; stroke-linejoin:round; stroke-width:2; stroke-opacity:0.1; fill:none" points="232.389,239.711 2352.76,239.711 "/>
<polyline clip-path="url(#clip840)" style="stroke:#000000; stroke-linecap:round; stroke-linejoin:round; stroke-width:4; stroke-opacity:1; fill:none" points="232.389,1423.18 232.389,47.2441 "/>
<polyline clip-path="url(#clip840)" style="stroke:#000000; stroke-linecap:round; stroke-linejoin:round; stroke-width:4; stroke-opacity:1; fill:none" points="2352.76,1423.18 2352.76,47.2441 "/>
<polyline clip-path="url(#clip840)" style="stroke:#000000; stroke-linecap:round; stroke-linejoin:round; stroke-width:4; stroke-opacity:1; fill:none" points="232.389,1391.15 251.287,1391.15 "/>
<polyline clip-path="url(#clip840)" style="stroke:#000000; stroke-linecap:round; stroke-linejoin:round; stroke-width:4; stroke-opacity:1; fill:none" points="232.389,1007.33 251.287,1007.33 "/>
<polyline clip-path="url(#clip840)" style="stroke:#000000; stroke-linecap:round; stroke-linejoin:round; stroke-width:4; stroke-opacity:1; fill:none" points="232.389,623.523 251.287,623.523 "/>
<polyline clip-path="url(#clip840)" style="stroke:#000000; stroke-linecap:round; stroke-linejoin:round; stroke-width:4; stroke-opacity:1; fill:none" points="232.389,239.711 251.287,239.711 "/>
<polyline clip-path="url(#clip840)" style="stroke:#000000; stroke-linecap:round; stroke-linejoin:round; stroke-width:4; stroke-opacity:1; fill:none" points="2352.76,1391.15 2333.86,1391.15 "/>
<polyline clip-path="url(#clip840)" style="stroke:#000000; stroke-linecap:round; stroke-linejoin:round; stroke-width:4; stroke-opacity:1; fill:none" points="2352.76,1007.33 2333.86,1007.33 "/>
<polyline clip-path="url(#clip840)" style="stroke:#000000; stroke-linecap:round; stroke-linejoin:round; stroke-width:4; stroke-opacity:1; fill:none" points="2352.76,623.523 2333.86,623.523 "/>
<polyline clip-path="url(#clip840)" style="stroke:#000000; stroke-linecap:round; stroke-linejoin:round; stroke-width:4; stroke-opacity:1; fill:none" points="2352.76,239.711 2333.86,239.711 "/>
<path clip-path="url(#clip840)" d="M184.445 1376.95 Q180.834 1376.95 179.005 1380.51 Q177.2 1384.05 177.2 1391.18 Q177.2 1398.29 179.005 1401.85 Q180.834 1405.39 184.445 1405.39 Q188.079 1405.39 189.885 1401.85 Q191.713 1398.29 191.713 1391.18 Q191.713 1384.05 189.885 1380.51 Q188.079 1376.95 184.445 1376.95 M184.445 1373.24 Q190.255 1373.24 193.311 1377.85 Q196.389 1382.43 196.389 1391.18 Q196.389 1399.91 193.311 1404.51 Q190.255 1409.1 184.445 1409.1 Q178.635 1409.1 175.556 1404.51 Q172.501 1399.91 172.501 1391.18 Q172.501 1382.43 175.556 1377.85 Q178.635 1373.24 184.445 1373.24 Z" fill="#000000" fill-rule="nonzero" fill-opacity="1" /><path clip-path="url(#clip840)" d="M144.329 990.055 L162.686 990.055 L162.686 993.99 L148.612 993.99 L148.612 1002.46 Q149.63 1002.11 150.649 1001.95 Q151.667 1001.77 152.686 1001.77 Q158.473 1001.77 161.852 1004.94 Q165.232 1008.11 165.232 1013.53 Q165.232 1019.11 161.76 1022.21 Q158.288 1025.29 151.968 1025.29 Q149.792 1025.29 147.524 1024.92 Q145.279 1024.55 142.871 1023.8 L142.871 1019.11 Q144.954 1020.24 147.177 1020.8 Q149.399 1021.35 151.876 1021.35 Q155.88 1021.35 158.218 1019.24 Q160.556 1017.14 160.556 1013.53 Q160.556 1009.92 158.218 1007.81 Q155.88 1005.7 151.876 1005.7 Q150.001 1005.7 148.126 1006.12 Q146.274 1006.54 144.329 1007.42 L144.329 990.055 Z" fill="#000000" fill-rule="nonzero" fill-opacity="1" /><path clip-path="url(#clip840)" d="M184.445 993.133 Q180.834 993.133 179.005 996.698 Q177.2 1000.24 177.2 1007.37 Q177.2 1014.48 179.005 1018.04 Q180.834 1021.58 184.445 1021.58 Q188.079 1021.58 189.885 1018.04 Q191.713 1014.48 191.713 1007.37 Q191.713 1000.24 189.885 996.698 Q188.079 993.133 184.445 993.133 M184.445 989.43 Q190.255 989.43 193.311 994.036 Q196.389 998.62 196.389 1007.37 Q196.389 1016.1 193.311 1020.7 Q190.255 1025.29 184.445 1025.29 Q178.635 1025.29 175.556 1020.7 Q172.501 1016.1 172.501 1007.37 Q172.501 998.62 175.556 994.036 Q178.635 989.43 184.445 989.43 Z" fill="#000000" fill-rule="nonzero" fill-opacity="1" /><path clip-path="url(#clip840)" d="M114.931 636.867 L122.57 636.867 L122.57 610.502 L114.26 612.169 L114.26 607.909 L122.524 606.243 L127.2 606.243 L127.2 636.867 L134.839 636.867 L134.839 640.803 L114.931 640.803 L114.931 636.867 Z" fill="#000000" fill-rule="nonzero" fill-opacity="1" /><path clip-path="url(#clip840)" d="M154.283 609.321 Q150.672 609.321 148.843 612.886 Q147.038 616.428 147.038 623.557 Q147.038 630.664 148.843 634.229 Q150.672 637.77 154.283 637.77 Q157.917 637.77 159.723 634.229 Q161.552 630.664 161.552 623.557 Q161.552 616.428 159.723 612.886 Q157.917 609.321 154.283 609.321 M154.283 605.618 Q160.093 605.618 163.149 610.224 Q166.227 614.807 166.227 623.557 Q166.227 632.284 163.149 636.891 Q160.093 641.474 154.283 641.474 Q148.473 641.474 145.394 636.891 Q142.339 632.284 142.339 623.557 Q142.339 614.807 145.394 610.224 Q148.473 605.618 154.283 605.618 Z" fill="#000000" fill-rule="nonzero" fill-opacity="1" /><path clip-path="url(#clip840)" d="M184.445 609.321 Q180.834 609.321 179.005 612.886 Q177.2 616.428 177.2 623.557 Q177.2 630.664 179.005 634.229 Q180.834 637.77 184.445 637.77 Q188.079 637.77 189.885 634.229 Q191.713 630.664 191.713 623.557 Q191.713 616.428 189.885 612.886 Q188.079 609.321 184.445 609.321 M184.445 605.618 Q190.255 605.618 193.311 610.224 Q196.389 614.807 196.389 623.557 Q196.389 632.284 193.311 636.891 Q190.255 641.474 184.445 641.474 Q178.635 641.474 175.556 636.891 Q172.501 632.284 172.501 623.557 Q172.501 614.807 175.556 610.224 Q178.635 605.618 184.445 605.618 Z" fill="#000000" fill-rule="nonzero" fill-opacity="1" /><path clip-path="url(#clip840)" d="M114.931 253.055 L122.57 253.055 L122.57 226.69 L114.26 228.356 L114.26 224.097 L122.524 222.431 L127.2 222.431 L127.2 253.055 L134.839 253.055 L134.839 256.991 L114.931 256.991 L114.931 253.055 Z" fill="#000000" fill-rule="nonzero" fill-opacity="1" /><path clip-path="url(#clip840)" d="M144.329 222.431 L162.686 222.431 L162.686 226.366 L148.612 226.366 L148.612 234.838 Q149.63 234.491 150.649 234.329 Q151.667 234.143 152.686 234.143 Q158.473 234.143 161.852 237.315 Q165.232 240.486 165.232 245.903 Q165.232 251.481 161.76 254.583 Q158.288 257.662 151.968 257.662 Q149.792 257.662 147.524 257.291 Q145.279 256.921 142.871 256.18 L142.871 251.481 Q144.954 252.616 147.177 253.171 Q149.399 253.727 151.876 253.727 Q155.88 253.727 158.218 251.62 Q160.556 249.514 160.556 245.903 Q160.556 242.292 158.218 240.185 Q155.88 238.079 151.876 238.079 Q150.001 238.079 148.126 238.495 Q146.274 238.912 144.329 239.792 L144.329 222.431 Z" fill="#000000" fill-rule="nonzero" fill-opacity="1" /><path clip-path="url(#clip840)" d="M184.445 225.509 Q180.834 225.509 179.005 229.074 Q177.2 232.616 177.2 239.745 Q177.2 246.852 179.005 250.416 Q180.834 253.958 184.445 253.958 Q188.079 253.958 189.885 250.416 Q191.713 246.852 191.713 239.745 Q191.713 232.616 189.885 229.074 Q188.079 225.509 184.445 225.509 M184.445 221.806 Q190.255 221.806 193.311 226.412 Q196.389 230.995 196.389 239.745 Q196.389 248.472 193.311 253.079 Q190.255 257.662 184.445 257.662 Q178.635 257.662 175.556 253.079 Q172.501 248.472 172.501 239.745 Q172.501 230.995 175.556 226.412 Q178.635 221.806 184.445 221.806 Z" fill="#000000" fill-rule="nonzero" fill-opacity="1" /><path clip-path="url(#clip840)" d="M21.7677 1073.01 L58.7206 1073.01 L58.7206 1065.24 Q58.7206 1055.41 54.2646 1050.86 Q49.8086 1046.27 40.1964 1046.27 Q30.6479 1046.27 26.2237 1050.86 Q21.7677 1055.41 21.7677 1065.24 L21.7677 1073.01 M16.4842 1079.44 L16.4842 1066.23 Q16.4842 1052.42 22.2451 1045.95 Q27.9743 1039.49 40.1964 1039.49 Q52.4822 1039.49 58.2432 1045.99 Q64.0042 1052.48 64.0042 1066.23 L64.0042 1079.44 L16.4842 1079.44 Z" fill="#000000" fill-rule="nonzero" fill-opacity="1" /><path clip-path="url(#clip840)" d="M44.7161 999.007 L47.5806 999.007 L47.5806 1025.93 Q53.6281 1025.55 56.8109 1022.31 Q59.9619 1019.03 59.9619 1013.2 Q59.9619 1009.83 59.1344 1006.68 Q58.3069 1003.49 56.6518 1000.38 L62.1899 1000.38 Q63.5267 1003.53 64.227 1006.84 Q64.9272 1010.15 64.9272 1013.55 Q64.9272 1022.08 59.9619 1027.08 Q54.9967 1032.04 46.5303 1032.04 Q37.7774 1032.04 32.6531 1027.33 Q27.4968 1022.59 27.4968 1014.57 Q27.4968 1007.38 32.1438 1003.21 Q36.7589 999.007 44.7161 999.007 M42.9973 1004.86 Q38.1912 1004.93 35.3266 1007.57 Q32.4621 1010.18 32.4621 1014.51 Q32.4621 1019.41 35.2312 1022.37 Q38.0002 1025.3 43.0292 1025.74 L42.9973 1004.86 Z" fill="#000000" fill-rule="nonzero" fill-opacity="1" /><path clip-path="url(#clip840)" d="M42.4881 959.762 L64.0042 959.762 L64.0042 965.619 L42.679 965.619 Q37.6183 965.619 35.1038 967.592 Q32.5894 969.565 32.5894 973.512 Q32.5894 978.255 35.6131 980.992 Q38.6368 983.729 43.8567 983.729 L64.0042 983.729 L64.0042 989.617 L28.3562 989.617 L28.3562 983.729 L33.8944 983.729 Q30.6797 981.628 29.0883 978.796 Q27.4968 975.931 27.4968 972.207 Q27.4968 966.064 31.3163 962.913 Q35.1038 959.762 42.4881 959.762 Z" fill="#000000" fill-rule="nonzero" fill-opacity="1" /><path clip-path="url(#clip840)" d="M49.9359 948.686 L28.3562 948.686 L28.3562 942.829 L49.7131 942.829 Q54.7739 942.829 57.3202 940.856 Q59.8346 938.883 59.8346 934.936 Q59.8346 930.194 56.8109 927.456 Q53.7872 924.687 48.5673 924.687 L28.3562 924.687 L28.3562 918.831 L64.0042 918.831 L64.0042 924.687 L58.5296 924.687 Q61.7762 926.82 63.3676 929.652 Q64.9272 932.453 64.9272 936.177 Q64.9272 942.32 61.1078 945.503 Q57.2883 948.686 49.9359 948.686 M27.4968 933.949 L27.4968 933.949 Z" fill="#000000" fill-rule="nonzero" fill-opacity="1" /><path clip-path="url(#clip840)" d="M33.7671 883.31 L14.479 883.31 L14.479 877.454 L64.0042 877.454 L64.0042 883.31 L58.657 883.31 Q61.8398 885.156 63.3994 887.989 Q64.9272 890.79 64.9272 894.737 Q64.9272 901.198 59.771 905.272 Q54.6147 909.314 46.212 909.314 Q37.8093 909.314 32.6531 905.272 Q27.4968 901.198 27.4968 894.737 Q27.4968 890.79 29.0564 887.989 Q30.5842 885.156 33.7671 883.31 M46.212 903.267 Q52.6732 903.267 56.3653 900.625 Q60.0256 897.951 60.0256 893.304 Q60.0256 888.657 56.3653 885.984 Q52.6732 883.31 46.212 883.31 Q39.7508 883.31 36.0905 885.984 Q32.3984 888.657 32.3984 893.304 Q32.3984 897.951 36.0905 900.625 Q39.7508 903.267 46.212 903.267 Z" fill="#000000" fill-rule="nonzero" fill-opacity="1" /><path clip-path="url(#clip840)" d="M46.0847 849.19 Q46.0847 856.288 47.7079 859.025 Q49.3312 861.762 53.2461 861.762 Q56.3653 861.762 58.2114 859.725 Q60.0256 857.656 60.0256 854.123 Q60.0256 849.254 56.5881 846.325 Q53.1188 843.365 47.3897 843.365 L46.0847 843.365 L46.0847 849.19 M43.6657 837.509 L64.0042 837.509 L64.0042 843.365 L58.5933 843.365 Q61.8398 845.371 63.3994 848.362 Q64.9272 851.354 64.9272 855.683 Q64.9272 861.157 61.8716 864.404 Q58.7843 867.619 53.6281 867.619 Q47.6125 867.619 44.5569 863.608 Q41.5014 859.566 41.5014 851.577 L41.5014 843.365 L40.9285 843.365 Q36.8862 843.365 34.6901 846.039 Q32.4621 848.681 32.4621 853.487 Q32.4621 856.542 33.1941 859.439 Q33.9262 862.335 35.3903 865.009 L29.9795 865.009 Q28.7381 861.794 28.1334 858.77 Q27.4968 855.747 27.4968 852.882 Q27.4968 845.148 31.5072 841.328 Q35.5176 837.509 43.6657 837.509 Z" fill="#000000" fill-rule="nonzero" fill-opacity="1" /><path clip-path="url(#clip840)" d="M18.2347 819.653 L28.3562 819.653 L28.3562 807.59 L32.9077 807.59 L32.9077 819.653 L52.2594 819.653 Q56.6199 819.653 57.8613 818.475 Q59.1026 817.266 59.1026 813.606 L59.1026 807.59 L64.0042 807.59 L64.0042 813.606 Q64.0042 820.385 61.4897 822.963 Q58.9434 825.541 52.2594 825.541 L32.9077 825.541 L32.9077 829.838 L28.3562 829.838 L28.3562 825.541 L18.2347 825.541 L18.2347 819.653 Z" fill="#000000" fill-rule="nonzero" fill-opacity="1" /><path clip-path="url(#clip840)" d="M28.3562 799.888 L28.3562 794.031 L64.0042 794.031 L64.0042 799.888 L28.3562 799.888 M14.479 799.888 L14.479 794.031 L21.895 794.031 L21.895 799.888 L14.479 799.888 Z" fill="#000000" fill-rule="nonzero" fill-opacity="1" /><path clip-path="url(#clip840)" d="M32.4621 767.964 Q32.4621 772.674 36.1542 775.411 Q39.8145 778.149 46.212 778.149 Q52.6095 778.149 56.3017 775.443 Q59.9619 772.706 59.9619 767.964 Q59.9619 763.285 56.2698 760.547 Q52.5777 757.81 46.212 757.81 Q39.8781 757.81 36.186 760.547 Q32.4621 763.285 32.4621 767.964 M27.4968 767.964 Q27.4968 760.325 32.4621 755.964 Q37.4273 751.604 46.212 751.604 Q54.9649 751.604 59.9619 755.964 Q64.9272 760.325 64.9272 767.964 Q64.9272 775.634 59.9619 779.995 Q54.9649 784.323 46.212 784.323 Q37.4273 784.323 32.4621 779.995 Q27.4968 775.634 27.4968 767.964 Z" fill="#000000" fill-rule="nonzero" fill-opacity="1" /><path clip-path="url(#clip840)" d="M42.4881 712.264 L64.0042 712.264 L64.0042 718.12 L42.679 718.12 Q37.6183 718.12 35.1038 720.093 Q32.5894 722.067 32.5894 726.014 Q32.5894 730.756 35.6131 733.493 Q38.6368 736.23 43.8567 736.23 L64.0042 736.23 L64.0042 742.119 L28.3562 742.119 L28.3562 736.23 L33.8944 736.23 Q30.6797 734.13 29.0883 731.297 Q27.4968 728.432 27.4968 724.709 Q27.4968 718.566 31.3163 715.415 Q35.1038 712.264 42.4881 712.264 Z" fill="#000000" fill-rule="nonzero" fill-opacity="1" /><path clip-path="url(#clip840)" d="M14.5426 665.794 Q21.8632 670.059 29.0246 672.128 Q36.186 674.197 43.5384 674.197 Q50.8908 674.197 58.1159 672.128 Q65.3091 670.027 72.5979 665.794 L72.5979 670.887 Q65.1182 675.661 57.8931 678.048 Q50.668 680.403 43.5384 680.403 Q36.4406 680.403 29.2474 678.048 Q22.0542 675.693 14.5426 670.887 L14.5426 665.794 Z" fill="#000000" fill-rule="nonzero" fill-opacity="1" /><path clip-path="url(#clip840)" d="M35.1993 626.677 Q31.2526 624.481 29.3747 621.425 Q27.4968 618.369 27.4968 614.232 Q27.4968 608.662 31.4117 605.638 Q35.2948 602.614 42.4881 602.614 L64.0042 602.614 L64.0042 608.503 L42.679 608.503 Q37.5546 608.503 35.072 610.317 Q32.5894 612.131 32.5894 615.855 Q32.5894 620.406 35.6131 623.048 Q38.6368 625.69 43.8567 625.69 L64.0042 625.69 L64.0042 631.578 L42.679 631.578 Q37.5228 631.578 35.072 633.392 Q32.5894 635.207 32.5894 638.994 Q32.5894 643.482 35.6449 646.124 Q38.6686 648.766 43.8567 648.766 L64.0042 648.766 L64.0042 654.654 L28.3562 654.654 L28.3562 648.766 L33.8944 648.766 Q30.616 646.76 29.0564 643.96 Q27.4968 641.159 27.4968 637.307 Q27.4968 633.424 29.4702 630.719 Q31.4436 627.982 35.1993 626.677 Z" fill="#000000" fill-rule="nonzero" fill-opacity="1" /><path clip-path="url(#clip840)" d="M35.1993 563.179 Q31.2526 560.983 29.3747 557.927 Q27.4968 554.871 27.4968 550.734 Q27.4968 545.164 31.4117 542.14 Q35.2948 539.116 42.4881 539.116 L64.0042 539.116 L64.0042 545.005 L42.679 545.005 Q37.5546 545.005 35.072 546.819 Q32.5894 548.633 32.5894 552.357 Q32.5894 556.909 35.6131 559.55 Q38.6368 562.192 43.8567 562.192 L64.0042 562.192 L64.0042 568.08 L42.679 568.08 Q37.5228 568.08 35.072 569.895 Q32.5894 571.709 32.5894 575.496 Q32.5894 579.984 35.6449 582.626 Q38.6686 585.268 43.8567 585.268 L64.0042 585.268 L64.0042 591.156 L28.3562 591.156 L28.3562 585.268 L33.8944 585.268 Q30.616 583.263 29.0564 580.462 Q27.4968 577.661 27.4968 573.809 Q27.4968 569.926 29.4702 567.221 Q31.4436 564.484 35.1993 563.179 Z" fill="#000000" fill-rule="nonzero" fill-opacity="1" /><path clip-path="url(#clip840)" d="M16.4842 517.027 L16.4842 511.617 L70.0516 528.167 L70.0516 533.578 L16.4842 517.027 Z" fill="#000000" fill-rule="nonzero" fill-opacity="1" /><path clip-path="url(#clip840)" d="M14.479 505.696 L14.479 499.808 L43.7294 499.808 L28.3562 482.334 L28.3562 474.855 L45.0344 493.761 L64.0042 474.059 L64.0042 481.698 L46.5939 499.808 L64.0042 499.808 L64.0042 505.696 L14.479 505.696 Z" fill="#000000" fill-rule="nonzero" fill-opacity="1" /><path clip-path="url(#clip840)" d="M67.3143 455.216 Q73.68 457.699 75.6216 460.054 Q77.5631 462.41 77.5631 466.356 L77.5631 471.035 L72.6615 471.035 L72.6615 467.598 Q72.6615 465.179 71.5157 463.842 Q70.3699 462.505 66.1048 460.882 L63.4312 459.831 L28.3562 474.25 L28.3562 468.043 L56.238 456.903 L28.3562 445.763 L28.3562 439.557 L67.3143 455.216 Z" fill="#000000" fill-rule="nonzero" fill-opacity="1" /><path clip-path="url(#clip840)" d="M33.8307 410.816 Q33.2578 411.802 33.0032 412.98 Q32.7167 414.126 32.7167 415.526 Q32.7167 420.491 35.9632 423.165 Q39.1779 425.807 45.2253 425.807 L64.0042 425.807 L64.0042 431.695 L28.3562 431.695 L28.3562 425.807 L33.8944 425.807 Q30.6479 423.961 29.0883 421.001 Q27.4968 418.041 27.4968 413.807 Q27.4968 413.203 27.5923 412.471 Q27.656 411.739 27.8151 410.847 L33.8307 410.816 Z" fill="#000000" fill-rule="nonzero" fill-opacity="1" /><path clip-path="url(#clip840)" d="M14.5426 405.596 L14.5426 400.503 Q22.0542 395.729 29.2474 393.374 Q36.4406 390.986 43.5384 390.986 Q50.668 390.986 57.8931 393.374 Q65.1182 395.729 72.5979 400.503 L72.5979 405.596 Q65.3091 401.362 58.1159 399.294 Q50.8908 397.193 43.5384 397.193 Q36.186 397.193 29.0246 399.294 Q21.8632 401.362 14.5426 405.596 Z" fill="#000000" fill-rule="nonzero" fill-opacity="1" /><circle clip-path="url(#clip842)" cx="292.4" cy="1312.08" r="14.4" fill="#0000ff" fill-rule="evenodd" fill-opacity="1" stroke="#000000" stroke-opacity="1" stroke-width="3.2"/>
<circle clip-path="url(#clip842)" cx="292.4" cy="1373.49" r="14.4" fill="#0000ff" fill-rule="evenodd" fill-opacity="1" stroke="#000000" stroke-opacity="1" stroke-width="3.2"/>
<circle clip-path="url(#clip842)" cx="292.4" cy="1342.02" r="14.4" fill="#0000ff" fill-rule="evenodd" fill-opacity="1" stroke="#000000" stroke-opacity="1" stroke-width="3.2"/>
<circle clip-path="url(#clip842)" cx="292.4" cy="1372.72" r="14.4" fill="#0000ff" fill-rule="evenodd" fill-opacity="1" stroke="#000000" stroke-opacity="1" stroke-width="3.2"/>
<circle clip-path="url(#clip842)" cx="292.4" cy="1365.82" r="14.4" fill="#0000ff" fill-rule="evenodd" fill-opacity="1" stroke="#000000" stroke-opacity="1" stroke-width="3.2"/>
<circle clip-path="url(#clip842)" cx="292.4" cy="1370.42" r="14.4" fill="#0000ff" fill-rule="evenodd" fill-opacity="1" stroke="#000000" stroke-opacity="1" stroke-width="3.2"/>
<circle clip-path="url(#clip842)" cx="292.4" cy="1325.13" r="14.4" fill="#0000ff" fill-rule="evenodd" fill-opacity="1" stroke="#000000" stroke-opacity="1" stroke-width="3.2"/>
<circle clip-path="url(#clip842)" cx="292.4" cy="1348.16" r="14.4" fill="#0000ff" fill-rule="evenodd" fill-opacity="1" stroke="#000000" stroke-opacity="1" stroke-width="3.2"/>
<circle clip-path="url(#clip842)" cx="292.4" cy="1373.49" r="14.4" fill="#0000ff" fill-rule="evenodd" fill-opacity="1" stroke="#000000" stroke-opacity="1" stroke-width="3.2"/>
<circle clip-path="url(#clip842)" cx="292.4" cy="1322.06" r="14.4" fill="#0000ff" fill-rule="evenodd" fill-opacity="1" stroke="#000000" stroke-opacity="1" stroke-width="3.2"/>
<circle clip-path="url(#clip842)" cx="292.4" cy="1360.44" r="14.4" fill="#0000ff" fill-rule="evenodd" fill-opacity="1" stroke="#000000" stroke-opacity="1" stroke-width="3.2"/>
<circle clip-path="url(#clip842)" cx="292.4" cy="1356.6" r="14.4" fill="#0000ff" fill-rule="evenodd" fill-opacity="1" stroke="#000000" stroke-opacity="1" stroke-width="3.2"/>
<circle clip-path="url(#clip842)" cx="292.4" cy="1348.93" r="14.4" fill="#0000ff" fill-rule="evenodd" fill-opacity="1" stroke="#000000" stroke-opacity="1" stroke-width="3.2"/>
<circle clip-path="url(#clip842)" cx="292.4" cy="1345.86" r="14.4" fill="#0000ff" fill-rule="evenodd" fill-opacity="1" stroke="#000000" stroke-opacity="1" stroke-width="3.2"/>
<circle clip-path="url(#clip842)" cx="292.4" cy="1380.4" r="14.4" fill="#0000ff" fill-rule="evenodd" fill-opacity="1" stroke="#000000" stroke-opacity="1" stroke-width="3.2"/>
<circle clip-path="url(#clip842)" cx="292.4" cy="1384.24" r="14.4" fill="#0000ff" fill-rule="evenodd" fill-opacity="1" stroke="#000000" stroke-opacity="1" stroke-width="3.2"/>
<circle clip-path="url(#clip842)" cx="292.4" cy="1306.71" r="14.4" fill="#0000ff" fill-rule="evenodd" fill-opacity="1" stroke="#000000" stroke-opacity="1" stroke-width="3.2"/>
<circle clip-path="url(#clip842)" cx="506.722" cy="1326.67" r="14.4" fill="#0000ff" fill-rule="evenodd" fill-opacity="1" stroke="#000000" stroke-opacity="1" stroke-width="3.2"/>
<circle clip-path="url(#clip842)" cx="692.469" cy="1326.67" r="14.4" fill="#0000ff" fill-rule="evenodd" fill-opacity="1" stroke="#000000" stroke-opacity="1" stroke-width="3.2"/>
<circle clip-path="url(#clip842)" cx="725.808" cy="1214.59" r="14.4" fill="#0000ff" fill-rule="evenodd" fill-opacity="1" stroke="#000000" stroke-opacity="1" stroke-width="3.2"/>
<circle clip-path="url(#clip842)" cx="844.876" cy="1286.75" r="14.4" fill="#0000ff" fill-rule="evenodd" fill-opacity="1" stroke="#000000" stroke-opacity="1" stroke-width="3.2"/>
<circle clip-path="url(#clip842)" cx="863.927" cy="1227.64" r="14.4" fill="#0000ff" fill-rule="evenodd" fill-opacity="1" stroke="#000000" stroke-opacity="1" stroke-width="3.2"/>
<circle clip-path="url(#clip842)" cx="1021.1" cy="1274.47" r="14.4" fill="#0000ff" fill-rule="evenodd" fill-opacity="1" stroke="#000000" stroke-opacity="1" stroke-width="3.2"/>
<circle clip-path="url(#clip842)" cx="1092.54" cy="1302.1" r="14.4" fill="#0000ff" fill-rule="evenodd" fill-opacity="1" stroke="#000000" stroke-opacity="1" stroke-width="3.2"/>
<circle clip-path="url(#clip842)" cx="1135.4" cy="1298.26" r="14.4" fill="#0000ff" fill-rule="evenodd" fill-opacity="1" stroke="#000000" stroke-opacity="1" stroke-width="3.2"/>
<circle clip-path="url(#clip842)" cx="1140.17" cy="1140.9" r="14.4" fill="#0000ff" fill-rule="evenodd" fill-opacity="1" stroke="#000000" stroke-opacity="1" stroke-width="3.2"/>
<circle clip-path="url(#clip842)" cx="1211.61" cy="1124.78" r="14.4" fill="#0000ff" fill-rule="evenodd" fill-opacity="1" stroke="#000000" stroke-opacity="1" stroke-width="3.2"/>
<circle clip-path="url(#clip842)" cx="1264" cy="1285.98" r="14.4" fill="#0000ff" fill-rule="evenodd" fill-opacity="1" stroke="#000000" stroke-opacity="1" stroke-width="3.2"/>
<circle clip-path="url(#clip842)" cx="1564.05" cy="1294.43" r="14.4" fill="#0000ff" fill-rule="evenodd" fill-opacity="1" stroke="#000000" stroke-opacity="1" stroke-width="3.2"/>
<circle clip-path="url(#clip842)" cx="1587.86" cy="1298.26" r="14.4" fill="#0000ff" fill-rule="evenodd" fill-opacity="1" stroke="#000000" stroke-opacity="1" stroke-width="3.2"/>
<circle clip-path="url(#clip842)" cx="1849.81" cy="1219.97" r="14.4" fill="#0000ff" fill-rule="evenodd" fill-opacity="1" stroke="#000000" stroke-opacity="1" stroke-width="3.2"/>
<circle clip-path="url(#clip842)" cx="1911.73" cy="1244.53" r="14.4" fill="#0000ff" fill-rule="evenodd" fill-opacity="1" stroke="#000000" stroke-opacity="1" stroke-width="3.2"/>
<circle clip-path="url(#clip842)" cx="1992.69" cy="1335.88" r="14.4" fill="#0000ff" fill-rule="evenodd" fill-opacity="1" stroke="#000000" stroke-opacity="1" stroke-width="3.2"/>
<circle clip-path="url(#clip842)" cx="2140.34" cy="1099.45" r="14.4" fill="#0000ff" fill-rule="evenodd" fill-opacity="1" stroke="#000000" stroke-opacity="1" stroke-width="3.2"/>
<circle clip-path="url(#clip842)" cx="292.4" cy="1045.72" r="14.4" fill="#0000ff" fill-rule="evenodd" fill-opacity="1" stroke="#000000" stroke-opacity="1" stroke-width="3.2"/>
<circle clip-path="url(#clip842)" cx="292.4" cy="1206.92" r="14.4" fill="#0000ff" fill-rule="evenodd" fill-opacity="1" stroke="#000000" stroke-opacity="1" stroke-width="3.2"/>
<circle clip-path="url(#clip842)" cx="292.4" cy="1199.24" r="14.4" fill="#0000ff" fill-rule="evenodd" fill-opacity="1" stroke="#000000" stroke-opacity="1" stroke-width="3.2"/>
<circle clip-path="url(#clip842)" cx="292.4" cy="1114.8" r="14.4" fill="#0000ff" fill-rule="evenodd" fill-opacity="1" stroke="#000000" stroke-opacity="1" stroke-width="3.2"/>
<circle clip-path="url(#clip842)" cx="292.4" cy="1268.33" r="14.4" fill="#0000ff" fill-rule="evenodd" fill-opacity="1" stroke="#000000" stroke-opacity="1" stroke-width="3.2"/>
<circle clip-path="url(#clip842)" cx="292.4" cy="1260.65" r="14.4" fill="#0000ff" fill-rule="evenodd" fill-opacity="1" stroke="#000000" stroke-opacity="1" stroke-width="3.2"/>
<circle clip-path="url(#clip842)" cx="292.4" cy="968.954" r="14.4" fill="#0000ff" fill-rule="evenodd" fill-opacity="1" stroke="#000000" stroke-opacity="1" stroke-width="3.2"/>
<circle clip-path="url(#clip842)" cx="292.4" cy="1206.92" r="14.4" fill="#0000ff" fill-rule="evenodd" fill-opacity="1" stroke="#000000" stroke-opacity="1" stroke-width="3.2"/>
<circle clip-path="url(#clip842)" cx="292.4" cy="1199.24" r="14.4" fill="#0000ff" fill-rule="evenodd" fill-opacity="1" stroke="#000000" stroke-opacity="1" stroke-width="3.2"/>
<circle clip-path="url(#clip842)" cx="292.4" cy="930.572" r="14.4" fill="#0000ff" fill-rule="evenodd" fill-opacity="1" stroke="#000000" stroke-opacity="1" stroke-width="3.2"/>
<circle clip-path="url(#clip842)" cx="292.4" cy="1099.45" r="14.4" fill="#0000ff" fill-rule="evenodd" fill-opacity="1" stroke="#000000" stroke-opacity="1" stroke-width="3.2"/>
<circle clip-path="url(#clip842)" cx="292.4" cy="1130.15" r="14.4" fill="#0000ff" fill-rule="evenodd" fill-opacity="1" stroke="#000000" stroke-opacity="1" stroke-width="3.2"/>
<circle clip-path="url(#clip842)" cx="292.4" cy="1153.18" r="14.4" fill="#0000ff" fill-rule="evenodd" fill-opacity="1" stroke="#000000" stroke-opacity="1" stroke-width="3.2"/>
<circle clip-path="url(#clip842)" cx="292.4" cy="1091.77" r="14.4" fill="#0000ff" fill-rule="evenodd" fill-opacity="1" stroke="#000000" stroke-opacity="1" stroke-width="3.2"/>
<circle clip-path="url(#clip842)" cx="292.4" cy="1237.62" r="14.4" fill="#0000ff" fill-rule="evenodd" fill-opacity="1" stroke="#000000" stroke-opacity="1" stroke-width="3.2"/>
<circle clip-path="url(#clip842)" cx="292.4" cy="1061.07" r="14.4" fill="#0000ff" fill-rule="evenodd" fill-opacity="1" stroke="#000000" stroke-opacity="1" stroke-width="3.2"/>
<circle clip-path="url(#clip842)" cx="292.4" cy="1176.21" r="14.4" fill="#0000ff" fill-rule="evenodd" fill-opacity="1" stroke="#000000" stroke-opacity="1" stroke-width="3.2"/>
<circle clip-path="url(#clip842)" cx="292.4" cy="1222.27" r="14.4" fill="#0000ff" fill-rule="evenodd" fill-opacity="1" stroke="#000000" stroke-opacity="1" stroke-width="3.2"/>
<circle clip-path="url(#clip842)" cx="292.4" cy="1153.18" r="14.4" fill="#0000ff" fill-rule="evenodd" fill-opacity="1" stroke="#000000" stroke-opacity="1" stroke-width="3.2"/>
<circle clip-path="url(#clip842)" cx="292.4" cy="1176.21" r="14.4" fill="#0000ff" fill-rule="evenodd" fill-opacity="1" stroke="#000000" stroke-opacity="1" stroke-width="3.2"/>
<circle clip-path="url(#clip842)" cx="292.4" cy="1214.59" r="14.4" fill="#0000ff" fill-rule="evenodd" fill-opacity="1" stroke="#000000" stroke-opacity="1" stroke-width="3.2"/>
<circle clip-path="url(#clip842)" cx="292.4" cy="1015.01" r="14.4" fill="#0000ff" fill-rule="evenodd" fill-opacity="1" stroke="#000000" stroke-opacity="1" stroke-width="3.2"/>
<circle clip-path="url(#clip842)" cx="292.4" cy="1022.69" r="14.4" fill="#0000ff" fill-rule="evenodd" fill-opacity="1" stroke="#000000" stroke-opacity="1" stroke-width="3.2"/>
<circle clip-path="url(#clip842)" cx="435.282" cy="1291.36" r="14.4" fill="#0000ff" fill-rule="evenodd" fill-opacity="1" stroke="#000000" stroke-opacity="1" stroke-width="3.2"/>
<circle clip-path="url(#clip842)" cx="530.536" cy="1038.04" r="14.4" fill="#0000ff" fill-rule="evenodd" fill-opacity="1" stroke="#000000" stroke-opacity="1" stroke-width="3.2"/>
<circle clip-path="url(#clip842)" cx="530.536" cy="1276" r="14.4" fill="#0000ff" fill-rule="evenodd" fill-opacity="1" stroke="#000000" stroke-opacity="1" stroke-width="3.2"/>
<circle clip-path="url(#clip842)" cx="530.536" cy="1276" r="14.4" fill="#0000ff" fill-rule="evenodd" fill-opacity="1" stroke="#000000" stroke-opacity="1" stroke-width="3.2"/>
<circle clip-path="url(#clip842)" cx="578.163" cy="1283.68" r="14.4" fill="#0000ff" fill-rule="evenodd" fill-opacity="1" stroke="#000000" stroke-opacity="1" stroke-width="3.2"/>
<circle clip-path="url(#clip842)" cx="625.791" cy="1191.56" r="14.4" fill="#0000ff" fill-rule="evenodd" fill-opacity="1" stroke="#000000" stroke-opacity="1" stroke-width="3.2"/>
<circle clip-path="url(#clip842)" cx="625.791" cy="1237.62" r="14.4" fill="#0000ff" fill-rule="evenodd" fill-opacity="1" stroke="#000000" stroke-opacity="1" stroke-width="3.2"/>
<circle clip-path="url(#clip842)" cx="673.418" cy="1168.54" r="14.4" fill="#0000ff" fill-rule="evenodd" fill-opacity="1" stroke="#000000" stroke-opacity="1" stroke-width="3.2"/>
<circle clip-path="url(#clip842)" cx="673.418" cy="1260.65" r="14.4" fill="#0000ff" fill-rule="evenodd" fill-opacity="1" stroke="#000000" stroke-opacity="1" stroke-width="3.2"/>
<circle clip-path="url(#clip842)" cx="768.673" cy="976.63" r="14.4" fill="#0000ff" fill-rule="evenodd" fill-opacity="1" stroke="#000000" stroke-opacity="1" stroke-width="3.2"/>
<circle clip-path="url(#clip842)" cx="768.673" cy="1245.3" r="14.4" fill="#0000ff" fill-rule="evenodd" fill-opacity="1" stroke="#000000" stroke-opacity="1" stroke-width="3.2"/>
<circle clip-path="url(#clip842)" cx="768.673" cy="1291.36" r="14.4" fill="#0000ff" fill-rule="evenodd" fill-opacity="1" stroke="#000000" stroke-opacity="1" stroke-width="3.2"/>
<circle clip-path="url(#clip842)" cx="816.3" cy="1222.27" r="14.4" fill="#0000ff" fill-rule="evenodd" fill-opacity="1" stroke="#000000" stroke-opacity="1" stroke-width="3.2"/>
<circle clip-path="url(#clip842)" cx="863.927" cy="1176.21" r="14.4" fill="#0000ff" fill-rule="evenodd" fill-opacity="1" stroke="#000000" stroke-opacity="1" stroke-width="3.2"/>
<circle clip-path="url(#clip842)" cx="863.927" cy="1276" r="14.4" fill="#0000ff" fill-rule="evenodd" fill-opacity="1" stroke="#000000" stroke-opacity="1" stroke-width="3.2"/>
<circle clip-path="url(#clip842)" cx="911.554" cy="1199.24" r="14.4" fill="#0000ff" fill-rule="evenodd" fill-opacity="1" stroke="#000000" stroke-opacity="1" stroke-width="3.2"/>
<circle clip-path="url(#clip842)" cx="911.554" cy="1345.09" r="14.4" fill="#0000ff" fill-rule="evenodd" fill-opacity="1" stroke="#000000" stroke-opacity="1" stroke-width="3.2"/>
<circle clip-path="url(#clip842)" cx="959.182" cy="1130.15" r="14.4" fill="#0000ff" fill-rule="evenodd" fill-opacity="1" stroke="#000000" stroke-opacity="1" stroke-width="3.2"/>
<circle clip-path="url(#clip842)" cx="959.182" cy="1276" r="14.4" fill="#0000ff" fill-rule="evenodd" fill-opacity="1" stroke="#000000" stroke-opacity="1" stroke-width="3.2"/>
<circle clip-path="url(#clip842)" cx="1006.81" cy="1260.65" r="14.4" fill="#0000ff" fill-rule="evenodd" fill-opacity="1" stroke="#000000" stroke-opacity="1" stroke-width="3.2"/>
<circle clip-path="url(#clip842)" cx="1006.81" cy="1137.83" r="14.4" fill="#0000ff" fill-rule="evenodd" fill-opacity="1" stroke="#000000" stroke-opacity="1" stroke-width="3.2"/>
<circle clip-path="url(#clip842)" cx="1006.81" cy="1176.21" r="14.4" fill="#0000ff" fill-rule="evenodd" fill-opacity="1" stroke="#000000" stroke-opacity="1" stroke-width="3.2"/>
<circle clip-path="url(#clip842)" cx="1006.81" cy="1252.97" r="14.4" fill="#0000ff" fill-rule="evenodd" fill-opacity="1" stroke="#000000" stroke-opacity="1" stroke-width="3.2"/>
<circle clip-path="url(#clip842)" cx="1054.44" cy="1206.92" r="14.4" fill="#0000ff" fill-rule="evenodd" fill-opacity="1" stroke="#000000" stroke-opacity="1" stroke-width="3.2"/>
<circle clip-path="url(#clip842)" cx="1102.06" cy="1222.27" r="14.4" fill="#0000ff" fill-rule="evenodd" fill-opacity="1" stroke="#000000" stroke-opacity="1" stroke-width="3.2"/>
<circle clip-path="url(#clip842)" cx="1149.69" cy="1061.07" r="14.4" fill="#0000ff" fill-rule="evenodd" fill-opacity="1" stroke="#000000" stroke-opacity="1" stroke-width="3.2"/>
<circle clip-path="url(#clip842)" cx="1149.69" cy="1260.65" r="14.4" fill="#0000ff" fill-rule="evenodd" fill-opacity="1" stroke="#000000" stroke-opacity="1" stroke-width="3.2"/>
<circle clip-path="url(#clip842)" cx="1244.95" cy="1237.62" r="14.4" fill="#0000ff" fill-rule="evenodd" fill-opacity="1" stroke="#000000" stroke-opacity="1" stroke-width="3.2"/>
<circle clip-path="url(#clip842)" cx="1292.57" cy="1122.48" r="14.4" fill="#0000ff" fill-rule="evenodd" fill-opacity="1" stroke="#000000" stroke-opacity="1" stroke-width="3.2"/>
<circle clip-path="url(#clip842)" cx="1435.45" cy="1176.21" r="14.4" fill="#0000ff" fill-rule="evenodd" fill-opacity="1" stroke="#000000" stroke-opacity="1" stroke-width="3.2"/>
<circle clip-path="url(#clip842)" cx="1530.71" cy="1222.27" r="14.4" fill="#0000ff" fill-rule="evenodd" fill-opacity="1" stroke="#000000" stroke-opacity="1" stroke-width="3.2"/>
<circle clip-path="url(#clip842)" cx="1721.22" cy="999.659" r="14.4" fill="#0000ff" fill-rule="evenodd" fill-opacity="1" stroke="#000000" stroke-opacity="1" stroke-width="3.2"/>
<circle clip-path="url(#clip842)" cx="330.025" cy="1128.62" r="14.4" fill="#0000ff" fill-rule="evenodd" fill-opacity="1" stroke="#000000" stroke-opacity="1" stroke-width="3.2"/>
<circle clip-path="url(#clip842)" cx="332.407" cy="1088.7" r="14.4" fill="#0000ff" fill-rule="evenodd" fill-opacity="1" stroke="#000000" stroke-opacity="1" stroke-width="3.2"/>
<circle clip-path="url(#clip842)" cx="385.749" cy="972.024" r="14.4" fill="#0000ff" fill-rule="evenodd" fill-opacity="1" stroke="#000000" stroke-opacity="1" stroke-width="3.2"/>
<circle clip-path="url(#clip842)" cx="393.846" cy="1219.97" r="14.4" fill="#0000ff" fill-rule="evenodd" fill-opacity="1" stroke="#000000" stroke-opacity="1" stroke-width="3.2"/>
<circle clip-path="url(#clip842)" cx="406.229" cy="1168.54" r="14.4" fill="#0000ff" fill-rule="evenodd" fill-opacity="1" stroke="#000000" stroke-opacity="1" stroke-width="3.2"/>
<circle clip-path="url(#clip842)" cx="407.181" cy="1157.02" r="14.4" fill="#0000ff" fill-rule="evenodd" fill-opacity="1" stroke="#000000" stroke-opacity="1" stroke-width="3.2"/>
<circle clip-path="url(#clip842)" cx="422.898" cy="1187.73" r="14.4" fill="#0000ff" fill-rule="evenodd" fill-opacity="1" stroke="#000000" stroke-opacity="1" stroke-width="3.2"/>
<circle clip-path="url(#clip842)" cx="425.28" cy="1225.34" r="14.4" fill="#0000ff" fill-rule="evenodd" fill-opacity="1" stroke="#000000" stroke-opacity="1" stroke-width="3.2"/>
<circle clip-path="url(#clip842)" cx="436.71" cy="734.828" r="14.4" fill="#0000ff" fill-rule="evenodd" fill-opacity="1" stroke="#000000" stroke-opacity="1" stroke-width="3.2"/>
<circle clip-path="url(#clip842)" cx="448.141" cy="1248.37" r="14.4" fill="#0000ff" fill-rule="evenodd" fill-opacity="1" stroke="#000000" stroke-opacity="1" stroke-width="3.2"/>
<circle clip-path="url(#clip842)" cx="453.856" cy="1116.34" r="14.4" fill="#0000ff" fill-rule="evenodd" fill-opacity="1" stroke="#000000" stroke-opacity="1" stroke-width="3.2"/>
<circle clip-path="url(#clip842)" cx="456.238" cy="1015.78" r="14.4" fill="#0000ff" fill-rule="evenodd" fill-opacity="1" stroke="#000000" stroke-opacity="1" stroke-width="3.2"/>
<circle clip-path="url(#clip842)" cx="533.87" cy="1081.79" r="14.4" fill="#0000ff" fill-rule="evenodd" fill-opacity="1" stroke="#000000" stroke-opacity="1" stroke-width="3.2"/>
<circle clip-path="url(#clip842)" cx="619.123" cy="1127.08" r="14.4" fill="#0000ff" fill-rule="evenodd" fill-opacity="1" stroke="#000000" stroke-opacity="1" stroke-width="3.2"/>
<circle clip-path="url(#clip842)" cx="642.46" cy="496.865" r="14.4" fill="#0000ff" fill-rule="evenodd" fill-opacity="1" stroke="#000000" stroke-opacity="1" stroke-width="3.2"/>
<circle clip-path="url(#clip842)" cx="690.088" cy="1118.64" r="14.4" fill="#0000ff" fill-rule="evenodd" fill-opacity="1" stroke="#000000" stroke-opacity="1" stroke-width="3.2"/>
<circle clip-path="url(#clip842)" cx="779.151" cy="1208.45" r="14.4" fill="#0000ff" fill-rule="evenodd" fill-opacity="1" stroke="#000000" stroke-opacity="1" stroke-width="3.2"/>
<circle clip-path="url(#clip842)" cx="793.915" cy="1071.05" r="14.4" fill="#0000ff" fill-rule="evenodd" fill-opacity="1" stroke="#000000" stroke-opacity="1" stroke-width="3.2"/>
<circle clip-path="url(#clip842)" cx="835.827" cy="1117.11" r="14.4" fill="#0000ff" fill-rule="evenodd" fill-opacity="1" stroke="#000000" stroke-opacity="1" stroke-width="3.2"/>
<circle clip-path="url(#clip842)" cx="849.639" cy="305.726" r="14.4" fill="#0000ff" fill-rule="evenodd" fill-opacity="1" stroke="#000000" stroke-opacity="1" stroke-width="3.2"/>
<circle clip-path="url(#clip842)" cx="888.217" cy="538.316" r="14.4" fill="#0000ff" fill-rule="evenodd" fill-opacity="1" stroke="#000000" stroke-opacity="1" stroke-width="3.2"/>
<circle clip-path="url(#clip842)" cx="915.841" cy="1183.89" r="14.4" fill="#0000ff" fill-rule="evenodd" fill-opacity="1" stroke="#000000" stroke-opacity="1" stroke-width="3.2"/>
<circle clip-path="url(#clip842)" cx="916.317" cy="1002.73" r="14.4" fill="#0000ff" fill-rule="evenodd" fill-opacity="1" stroke="#000000" stroke-opacity="1" stroke-width="3.2"/>
<circle clip-path="url(#clip842)" cx="995.855" cy="476.906" r="14.4" fill="#0000ff" fill-rule="evenodd" fill-opacity="1" stroke="#000000" stroke-opacity="1" stroke-width="3.2"/>
<circle clip-path="url(#clip842)" cx="1027.76" cy="1119.41" r="14.4" fill="#0000ff" fill-rule="evenodd" fill-opacity="1" stroke="#000000" stroke-opacity="1" stroke-width="3.2"/>
<circle clip-path="url(#clip842)" cx="292.4" cy="889.888" r="14.4" fill="#0000ff" fill-rule="evenodd" fill-opacity="1" stroke="#000000" stroke-opacity="1" stroke-width="3.2"/>
<circle clip-path="url(#clip842)" cx="292.4" cy="1150.88" r="14.4" fill="#0000ff" fill-rule="evenodd" fill-opacity="1" stroke="#000000" stroke-opacity="1" stroke-width="3.2"/>
<circle clip-path="url(#clip842)" cx="292.4" cy="1187.73" r="14.4" fill="#0000ff" fill-rule="evenodd" fill-opacity="1" stroke="#000000" stroke-opacity="1" stroke-width="3.2"/>
<circle clip-path="url(#clip842)" cx="292.4" cy="1087.17" r="14.4" fill="#0000ff" fill-rule="evenodd" fill-opacity="1" stroke="#000000" stroke-opacity="1" stroke-width="3.2"/>
<circle clip-path="url(#clip842)" cx="292.4" cy="1160.09" r="14.4" fill="#0000ff" fill-rule="evenodd" fill-opacity="1" stroke="#000000" stroke-opacity="1" stroke-width="3.2"/>
<circle clip-path="url(#clip842)" cx="292.4" cy="1140.9" r="14.4" fill="#0000ff" fill-rule="evenodd" fill-opacity="1" stroke="#000000" stroke-opacity="1" stroke-width="3.2"/>
<circle clip-path="url(#clip842)" cx="292.4" cy="1132.46" r="14.4" fill="#0000ff" fill-rule="evenodd" fill-opacity="1" stroke="#000000" stroke-opacity="1" stroke-width="3.2"/>
<circle clip-path="url(#clip842)" cx="292.4" cy="1164.7" r="14.4" fill="#0000ff" fill-rule="evenodd" fill-opacity="1" stroke="#000000" stroke-opacity="1" stroke-width="3.2"/>
<circle clip-path="url(#clip842)" cx="292.4" cy="1154.72" r="14.4" fill="#0000ff" fill-rule="evenodd" fill-opacity="1" stroke="#000000" stroke-opacity="1" stroke-width="3.2"/>
<circle clip-path="url(#clip842)" cx="292.4" cy="1147.81" r="14.4" fill="#0000ff" fill-rule="evenodd" fill-opacity="1" stroke="#000000" stroke-opacity="1" stroke-width="3.2"/>
<circle clip-path="url(#clip842)" cx="292.4" cy="1167" r="14.4" fill="#0000ff" fill-rule="evenodd" fill-opacity="1" stroke="#000000" stroke-opacity="1" stroke-width="3.2"/>
<circle clip-path="url(#clip842)" cx="292.4" cy="1179.28" r="14.4" fill="#0000ff" fill-rule="evenodd" fill-opacity="1" stroke="#000000" stroke-opacity="1" stroke-width="3.2"/>
<circle clip-path="url(#clip842)" cx="292.4" cy="1147.04" r="14.4" fill="#0000ff" fill-rule="evenodd" fill-opacity="1" stroke="#000000" stroke-opacity="1" stroke-width="3.2"/>
<circle clip-path="url(#clip842)" cx="292.4" cy="1071.05" r="14.4" fill="#0000ff" fill-rule="evenodd" fill-opacity="1" stroke="#000000" stroke-opacity="1" stroke-width="3.2"/>
<circle clip-path="url(#clip842)" cx="292.4" cy="1085.63" r="14.4" fill="#0000ff" fill-rule="evenodd" fill-opacity="1" stroke="#000000" stroke-opacity="1" stroke-width="3.2"/>
<circle clip-path="url(#clip842)" cx="292.4" cy="1133.99" r="14.4" fill="#0000ff" fill-rule="evenodd" fill-opacity="1" stroke="#000000" stroke-opacity="1" stroke-width="3.2"/>
<circle clip-path="url(#clip842)" cx="292.4" cy="1229.95" r="14.4" fill="#0000ff" fill-rule="evenodd" fill-opacity="1" stroke="#000000" stroke-opacity="1" stroke-width="3.2"/>
<circle clip-path="url(#clip842)" cx="673.418" cy="938.249" r="14.4" fill="#0000ff" fill-rule="evenodd" fill-opacity="1" stroke="#000000" stroke-opacity="1" stroke-width="3.2"/>
<circle clip-path="url(#clip842)" cx="340.027" cy="1183.89" r="14.4" fill="#0000ff" fill-rule="evenodd" fill-opacity="1" stroke="#000000" stroke-opacity="1" stroke-width="3.2"/>
<circle clip-path="url(#clip842)" cx="863.927" cy="1283.68" r="14.4" fill="#0000ff" fill-rule="evenodd" fill-opacity="1" stroke="#000000" stroke-opacity="1" stroke-width="3.2"/>
<circle clip-path="url(#clip842)" cx="530.536" cy="738.666" r="14.4" fill="#0000ff" fill-rule="evenodd" fill-opacity="1" stroke="#000000" stroke-opacity="1" stroke-width="3.2"/>
<circle clip-path="url(#clip842)" cx="1435.45" cy="485.35" r="14.4" fill="#0000ff" fill-rule="evenodd" fill-opacity="1" stroke="#000000" stroke-opacity="1" stroke-width="3.2"/>
<circle clip-path="url(#clip842)" cx="1387.83" cy="792.4" r="14.4" fill="#0000ff" fill-rule="evenodd" fill-opacity="1" stroke="#000000" stroke-opacity="1" stroke-width="3.2"/>
<circle clip-path="url(#clip842)" cx="1292.57" cy="393.235" r="14.4" fill="#0000ff" fill-rule="evenodd" fill-opacity="1" stroke="#000000" stroke-opacity="1" stroke-width="3.2"/>
<circle clip-path="url(#clip842)" cx="1578.34" cy="922.896" r="14.4" fill="#0000ff" fill-rule="evenodd" fill-opacity="1" stroke="#000000" stroke-opacity="1" stroke-width="3.2"/>
<circle clip-path="url(#clip842)" cx="530.536" cy="1114.8" r="14.4" fill="#0000ff" fill-rule="evenodd" fill-opacity="1" stroke="#000000" stroke-opacity="1" stroke-width="3.2"/>
<circle clip-path="url(#clip842)" cx="768.673" cy="930.572" r="14.4" fill="#0000ff" fill-rule="evenodd" fill-opacity="1" stroke="#000000" stroke-opacity="1" stroke-width="3.2"/>
<circle clip-path="url(#clip842)" cx="863.927" cy="907.544" r="14.4" fill="#0000ff" fill-rule="evenodd" fill-opacity="1" stroke="#000000" stroke-opacity="1" stroke-width="3.2"/>
<circle clip-path="url(#clip842)" cx="2245.12" cy="1022.69" r="14.4" fill="#0000ff" fill-rule="evenodd" fill-opacity="1" stroke="#000000" stroke-opacity="1" stroke-width="3.2"/>
<circle clip-path="url(#clip842)" cx="1721.22" cy="769.371" r="14.4" fill="#0000ff" fill-rule="evenodd" fill-opacity="1" stroke="#000000" stroke-opacity="1" stroke-width="3.2"/>
<circle clip-path="url(#clip842)" cx="1197.32" cy="1145.51" r="14.4" fill="#0000ff" fill-rule="evenodd" fill-opacity="1" stroke="#000000" stroke-opacity="1" stroke-width="3.2"/>
<circle clip-path="url(#clip842)" cx="2292.75" cy="1130.15" r="14.4" fill="#0000ff" fill-rule="evenodd" fill-opacity="1" stroke="#000000" stroke-opacity="1" stroke-width="3.2"/>
<circle clip-path="url(#clip842)" cx="435.282" cy="1114.8" r="14.4" fill="#0000ff" fill-rule="evenodd" fill-opacity="1" stroke="#000000" stroke-opacity="1" stroke-width="3.2"/>
<circle clip-path="url(#clip842)" cx="1102.06" cy="1237.62" r="14.4" fill="#0000ff" fill-rule="evenodd" fill-opacity="1" stroke="#000000" stroke-opacity="1" stroke-width="3.2"/>
<circle clip-path="url(#clip842)" cx="1387.83" cy="1268.33" r="14.4" fill="#0000ff" fill-rule="evenodd" fill-opacity="1" stroke="#000000" stroke-opacity="1" stroke-width="3.2"/>
<circle clip-path="url(#clip842)" cx="1292.57" cy="1306.71" r="14.4" fill="#0000ff" fill-rule="evenodd" fill-opacity="1" stroke="#000000" stroke-opacity="1" stroke-width="3.2"/>
<circle clip-path="url(#clip842)" cx="1102.06" cy="1245.3" r="14.4" fill="#0000ff" fill-rule="evenodd" fill-opacity="1" stroke="#000000" stroke-opacity="1" stroke-width="3.2"/>
<circle clip-path="url(#clip842)" cx="911.554" cy="1306.71" r="14.4" fill="#0000ff" fill-rule="evenodd" fill-opacity="1" stroke="#000000" stroke-opacity="1" stroke-width="3.2"/>
<circle clip-path="url(#clip842)" cx="1244.95" cy="1260.65" r="14.4" fill="#0000ff" fill-rule="evenodd" fill-opacity="1" stroke="#000000" stroke-opacity="1" stroke-width="3.2"/>
<circle clip-path="url(#clip842)" cx="1006.81" cy="1260.65" r="14.4" fill="#0000ff" fill-rule="evenodd" fill-opacity="1" stroke="#000000" stroke-opacity="1" stroke-width="3.2"/>
<circle clip-path="url(#clip842)" cx="673.418" cy="1160.86" r="14.4" fill="#0000ff" fill-rule="evenodd" fill-opacity="1" stroke="#000000" stroke-opacity="1" stroke-width="3.2"/>
<circle clip-path="url(#clip842)" cx="340.027" cy="1191.56" r="14.4" fill="#0000ff" fill-rule="evenodd" fill-opacity="1" stroke="#000000" stroke-opacity="1" stroke-width="3.2"/>
<circle clip-path="url(#clip842)" cx="768.673" cy="1214.59" r="14.4" fill="#0000ff" fill-rule="evenodd" fill-opacity="1" stroke="#000000" stroke-opacity="1" stroke-width="3.2"/>
<circle clip-path="url(#clip842)" cx="625.791" cy="1045.72" r="14.4" fill="#0000ff" fill-rule="evenodd" fill-opacity="1" stroke="#000000" stroke-opacity="1" stroke-width="3.2"/>
<circle clip-path="url(#clip842)" cx="673.418" cy="1084.1" r="14.4" fill="#0000ff" fill-rule="evenodd" fill-opacity="1" stroke="#000000" stroke-opacity="1" stroke-width="3.2"/>
<circle clip-path="url(#clip842)" cx="721.045" cy="945.925" r="14.4" fill="#0000ff" fill-rule="evenodd" fill-opacity="1" stroke="#000000" stroke-opacity="1" stroke-width="3.2"/>
<circle clip-path="url(#clip842)" cx="768.673" cy="1091.77" r="14.4" fill="#0000ff" fill-rule="evenodd" fill-opacity="1" stroke="#000000" stroke-opacity="1" stroke-width="3.2"/>
<circle clip-path="url(#clip842)" cx="1054.44" cy="1068.74" r="14.4" fill="#0000ff" fill-rule="evenodd" fill-opacity="1" stroke="#000000" stroke-opacity="1" stroke-width="3.2"/>
<circle clip-path="url(#clip842)" cx="816.3" cy="1091.77" r="14.4" fill="#0000ff" fill-rule="evenodd" fill-opacity="1" stroke="#000000" stroke-opacity="1" stroke-width="3.2"/>
<circle clip-path="url(#clip842)" cx="1006.81" cy="1022.69" r="14.4" fill="#0000ff" fill-rule="evenodd" fill-opacity="1" stroke="#000000" stroke-opacity="1" stroke-width="3.2"/>
<circle clip-path="url(#clip842)" cx="1625.96" cy="1168.54" r="14.4" fill="#0000ff" fill-rule="evenodd" fill-opacity="1" stroke="#000000" stroke-opacity="1" stroke-width="3.2"/>
<circle clip-path="url(#clip842)" cx="1435.45" cy="839.225" r="14.4" fill="#0000ff" fill-rule="evenodd" fill-opacity="1" stroke="#000000" stroke-opacity="1" stroke-width="3.2"/>
<circle clip-path="url(#clip842)" cx="892.503" cy="948.228" r="14.4" fill="#0000ff" fill-rule="evenodd" fill-opacity="1" stroke="#000000" stroke-opacity="1" stroke-width="3.2"/>
<circle clip-path="url(#clip842)" cx="892.503" cy="929.037" r="14.4" fill="#0000ff" fill-rule="evenodd" fill-opacity="1" stroke="#000000" stroke-opacity="1" stroke-width="3.2"/>
<circle clip-path="url(#clip842)" cx="1087.78" cy="860.719" r="14.4" fill="#0000ff" fill-rule="evenodd" fill-opacity="1" stroke="#000000" stroke-opacity="1" stroke-width="3.2"/>
<circle clip-path="url(#clip842)" cx="1087.78" cy="846.134" r="14.4" fill="#0000ff" fill-rule="evenodd" fill-opacity="1" stroke="#000000" stroke-opacity="1" stroke-width="3.2"/>
<circle clip-path="url(#clip842)" cx="2049.85" cy="818.499" r="14.4" fill="#0000ff" fill-rule="evenodd" fill-opacity="1" stroke="#000000" stroke-opacity="1" stroke-width="3.2"/>
<circle clip-path="url(#clip842)" cx="2049.85" cy="818.499" r="14.4" fill="#0000ff" fill-rule="evenodd" fill-opacity="1" stroke="#000000" stroke-opacity="1" stroke-width="3.2"/>
<circle clip-path="url(#clip842)" cx="935.368" cy="871.465" r="14.4" fill="#0000ff" fill-rule="evenodd" fill-opacity="1" stroke="#000000" stroke-opacity="1" stroke-width="3.2"/>
<circle clip-path="url(#clip842)" cx="935.368" cy="882.98" r="14.4" fill="#0000ff" fill-rule="evenodd" fill-opacity="1" stroke="#000000" stroke-opacity="1" stroke-width="3.2"/>
<circle clip-path="url(#clip842)" cx="911.554" cy="845.366" r="14.4" fill="#0000ff" fill-rule="evenodd" fill-opacity="1" stroke="#000000" stroke-opacity="1" stroke-width="3.2"/>
<circle clip-path="url(#clip842)" cx="911.554" cy="837.69" r="14.4" fill="#0000ff" fill-rule="evenodd" fill-opacity="1" stroke="#000000" stroke-opacity="1" stroke-width="3.2"/>
<circle clip-path="url(#clip842)" cx="911.554" cy="927.502" r="14.4" fill="#0000ff" fill-rule="evenodd" fill-opacity="1" stroke="#000000" stroke-opacity="1" stroke-width="3.2"/>
<circle clip-path="url(#clip842)" cx="911.554" cy="919.058" r="14.4" fill="#0000ff" fill-rule="evenodd" fill-opacity="1" stroke="#000000" stroke-opacity="1" stroke-width="3.2"/>
<circle clip-path="url(#clip842)" cx="768.673" cy="899.1" r="14.4" fill="#0000ff" fill-rule="evenodd" fill-opacity="1" stroke="#000000" stroke-opacity="1" stroke-width="3.2"/>
<circle clip-path="url(#clip842)" cx="768.673" cy="828.478" r="14.4" fill="#0000ff" fill-rule="evenodd" fill-opacity="1" stroke="#000000" stroke-opacity="1" stroke-width="3.2"/>
<circle clip-path="url(#clip842)" cx="330.502" cy="1025.76" r="14.4" fill="#0000ff" fill-rule="evenodd" fill-opacity="1" stroke="#000000" stroke-opacity="1" stroke-width="3.2"/>
<circle clip-path="url(#clip842)" cx="330.502" cy="1051.86" r="14.4" fill="#0000ff" fill-rule="evenodd" fill-opacity="1" stroke="#000000" stroke-opacity="1" stroke-width="3.2"/>
<circle clip-path="url(#clip842)" cx="492.434" cy="1064.14" r="14.4" fill="#0000ff" fill-rule="evenodd" fill-opacity="1" stroke="#000000" stroke-opacity="1" stroke-width="3.2"/>
<circle clip-path="url(#clip842)" cx="492.434" cy="1076.42" r="14.4" fill="#0000ff" fill-rule="evenodd" fill-opacity="1" stroke="#000000" stroke-opacity="1" stroke-width="3.2"/>
<circle clip-path="url(#clip842)" cx="697.232" cy="985.074" r="14.4" fill="#0000ff" fill-rule="evenodd" fill-opacity="1" stroke="#000000" stroke-opacity="1" stroke-width="3.2"/>
<circle clip-path="url(#clip842)" cx="697.232" cy="994.285" r="14.4" fill="#0000ff" fill-rule="evenodd" fill-opacity="1" stroke="#000000" stroke-opacity="1" stroke-width="3.2"/>
<circle clip-path="url(#clip842)" cx="292.4" cy="1153.95" r="14.4" fill="#0000ff" fill-rule="evenodd" fill-opacity="1" stroke="#000000" stroke-opacity="1" stroke-width="3.2"/>
<circle clip-path="url(#clip842)" cx="292.4" cy="1162.39" r="14.4" fill="#0000ff" fill-rule="evenodd" fill-opacity="1" stroke="#000000" stroke-opacity="1" stroke-width="3.2"/>
<circle clip-path="url(#clip842)" cx="292.4" cy="1252.97" r="14.4" fill="#0000ff" fill-rule="evenodd" fill-opacity="1" stroke="#000000" stroke-opacity="1" stroke-width="3.2"/>
<circle clip-path="url(#clip842)" cx="292.4" cy="1245.3" r="14.4" fill="#0000ff" fill-rule="evenodd" fill-opacity="1" stroke="#000000" stroke-opacity="1" stroke-width="3.2"/>
<circle clip-path="url(#clip842)" cx="292.4" cy="1199.24" r="14.4" fill="#0000ff" fill-rule="evenodd" fill-opacity="1" stroke="#000000" stroke-opacity="1" stroke-width="3.2"/>
<circle clip-path="url(#clip842)" cx="292.4" cy="1222.27" r="14.4" fill="#0000ff" fill-rule="evenodd" fill-opacity="1" stroke="#000000" stroke-opacity="1" stroke-width="3.2"/>
<circle clip-path="url(#clip842)" cx="292.4" cy="1191.56" r="14.4" fill="#0000ff" fill-rule="evenodd" fill-opacity="1" stroke="#000000" stroke-opacity="1" stroke-width="3.2"/>
<circle clip-path="url(#clip842)" cx="292.4" cy="1168.54" r="14.4" fill="#0000ff" fill-rule="evenodd" fill-opacity="1" stroke="#000000" stroke-opacity="1" stroke-width="3.2"/>
<circle clip-path="url(#clip842)" cx="292.4" cy="1283.68" r="14.4" fill="#0000ff" fill-rule="evenodd" fill-opacity="1" stroke="#000000" stroke-opacity="1" stroke-width="3.2"/>
<circle clip-path="url(#clip842)" cx="292.4" cy="1356.6" r="14.4" fill="#0000ff" fill-rule="evenodd" fill-opacity="1" stroke="#000000" stroke-opacity="1" stroke-width="3.2"/>
<circle clip-path="url(#clip842)" cx="292.4" cy="1226.11" r="14.4" fill="#0000ff" fill-rule="evenodd" fill-opacity="1" stroke="#000000" stroke-opacity="1" stroke-width="3.2"/>
<circle clip-path="url(#clip842)" cx="292.4" cy="1249.14" r="14.4" fill="#0000ff" fill-rule="evenodd" fill-opacity="1" stroke="#000000" stroke-opacity="1" stroke-width="3.2"/>
<circle clip-path="url(#clip842)" cx="292.4" cy="1245.3" r="14.4" fill="#0000ff" fill-rule="evenodd" fill-opacity="1" stroke="#000000" stroke-opacity="1" stroke-width="3.2"/>
<circle clip-path="url(#clip842)" cx="292.4" cy="1245.3" r="14.4" fill="#0000ff" fill-rule="evenodd" fill-opacity="1" stroke="#000000" stroke-opacity="1" stroke-width="3.2"/>
<circle clip-path="url(#clip842)" cx="292.4" cy="1283.68" r="14.4" fill="#0000ff" fill-rule="evenodd" fill-opacity="1" stroke="#000000" stroke-opacity="1" stroke-width="3.2"/>
<circle clip-path="url(#clip842)" cx="292.4" cy="1222.27" r="14.4" fill="#0000ff" fill-rule="evenodd" fill-opacity="1" stroke="#000000" stroke-opacity="1" stroke-width="3.2"/>
<circle clip-path="url(#clip842)" cx="292.4" cy="1283.68" r="14.4" fill="#0000ff" fill-rule="evenodd" fill-opacity="1" stroke="#000000" stroke-opacity="1" stroke-width="3.2"/>
<circle clip-path="url(#clip842)" cx="292.4" cy="1229.95" r="14.4" fill="#0000ff" fill-rule="evenodd" fill-opacity="1" stroke="#000000" stroke-opacity="1" stroke-width="3.2"/>
<circle clip-path="url(#clip842)" cx="292.4" cy="1222.27" r="14.4" fill="#0000ff" fill-rule="evenodd" fill-opacity="1" stroke="#000000" stroke-opacity="1" stroke-width="3.2"/>
<circle clip-path="url(#clip842)" cx="292.4" cy="1252.97" r="14.4" fill="#0000ff" fill-rule="evenodd" fill-opacity="1" stroke="#000000" stroke-opacity="1" stroke-width="3.2"/>
<circle clip-path="url(#clip842)" cx="292.4" cy="1260.65" r="14.4" fill="#0000ff" fill-rule="evenodd" fill-opacity="1" stroke="#000000" stroke-opacity="1" stroke-width="3.2"/>
<circle clip-path="url(#clip842)" cx="292.4" cy="1260.65" r="14.4" fill="#0000ff" fill-rule="evenodd" fill-opacity="1" stroke="#000000" stroke-opacity="1" stroke-width="3.2"/>
<circle clip-path="url(#clip842)" cx="1078.25" cy="393.235" r="14.4" fill="#0000ff" fill-rule="evenodd" fill-opacity="1" stroke="#000000" stroke-opacity="1" stroke-width="3.2"/>
<circle clip-path="url(#clip842)" cx="1102.06" cy="585.141" r="14.4" fill="#0000ff" fill-rule="evenodd" fill-opacity="1" stroke="#000000" stroke-opacity="1" stroke-width="3.2"/>
<circle clip-path="url(#clip842)" cx="1125.88" cy="316.473" r="14.4" fill="#0000ff" fill-rule="evenodd" fill-opacity="1" stroke="#000000" stroke-opacity="1" stroke-width="3.2"/>
<circle clip-path="url(#clip842)" cx="1149.69" cy="930.572" r="14.4" fill="#0000ff" fill-rule="evenodd" fill-opacity="1" stroke="#000000" stroke-opacity="1" stroke-width="3.2"/>
<circle clip-path="url(#clip842)" cx="1244.95" cy="86.1857" r="14.4" fill="#0000ff" fill-rule="evenodd" fill-opacity="1" stroke="#000000" stroke-opacity="1" stroke-width="3.2"/>
<circle clip-path="url(#clip842)" cx="1364.01" cy="239.711" r="14.4" fill="#0000ff" fill-rule="evenodd" fill-opacity="1" stroke="#000000" stroke-opacity="1" stroke-width="3.2"/>
<circle clip-path="url(#clip842)" cx="292.4" cy="1285.98" r="14.4" fill="#0000ff" fill-rule="evenodd" fill-opacity="1" stroke="#000000" stroke-opacity="1" stroke-width="3.2"/>
<circle clip-path="url(#clip842)" cx="416.231" cy="1276" r="14.4" fill="#0000ff" fill-rule="evenodd" fill-opacity="1" stroke="#000000" stroke-opacity="1" stroke-width="3.2"/>
<circle clip-path="url(#clip842)" cx="363.841" cy="1276.77" r="14.4" fill="#0000ff" fill-rule="evenodd" fill-opacity="1" stroke="#000000" stroke-opacity="1" stroke-width="3.2"/>
<circle clip-path="url(#clip842)" cx="473.383" cy="1296.73" r="14.4" fill="#0000ff" fill-rule="evenodd" fill-opacity="1" stroke="#000000" stroke-opacity="1" stroke-width="3.2"/>
<circle clip-path="url(#clip842)" cx="363.841" cy="1275.24" r="14.4" fill="#0000ff" fill-rule="evenodd" fill-opacity="1" stroke="#000000" stroke-opacity="1" stroke-width="3.2"/>
<circle clip-path="url(#clip842)" cx="354.315" cy="1305.94" r="14.4" fill="#0000ff" fill-rule="evenodd" fill-opacity="1" stroke="#000000" stroke-opacity="1" stroke-width="3.2"/>
<circle clip-path="url(#clip842)" cx="1002.05" cy="1348.93" r="14.4" fill="#0000ff" fill-rule="evenodd" fill-opacity="1" stroke="#000000" stroke-opacity="1" stroke-width="3.2"/>
<circle clip-path="url(#clip842)" cx="492.434" cy="1278.31" r="14.4" fill="#0000ff" fill-rule="evenodd" fill-opacity="1" stroke="#000000" stroke-opacity="1" stroke-width="3.2"/>
<circle clip-path="url(#clip842)" cx="506.722" cy="1165.47" r="14.4" fill="#0000ff" fill-rule="evenodd" fill-opacity="1" stroke="#000000" stroke-opacity="1" stroke-width="3.2"/>
<circle clip-path="url(#clip842)" cx="482.909" cy="1188.49" r="14.4" fill="#0000ff" fill-rule="evenodd" fill-opacity="1" stroke="#000000" stroke-opacity="1" stroke-width="3.2"/>
<circle clip-path="url(#clip842)" cx="440.044" cy="1227.64" r="14.4" fill="#0000ff" fill-rule="evenodd" fill-opacity="1" stroke="#000000" stroke-opacity="1" stroke-width="3.2"/>
<circle clip-path="url(#clip842)" cx="463.858" cy="1361.21" r="14.4" fill="#0000ff" fill-rule="evenodd" fill-opacity="1" stroke="#000000" stroke-opacity="1" stroke-width="3.2"/>
<circle clip-path="url(#clip842)" cx="449.57" cy="1331.27" r="14.4" fill="#0000ff" fill-rule="evenodd" fill-opacity="1" stroke="#000000" stroke-opacity="1" stroke-width="3.2"/>
<circle clip-path="url(#clip842)" cx="463.858" cy="1302.1" r="14.4" fill="#0000ff" fill-rule="evenodd" fill-opacity="1" stroke="#000000" stroke-opacity="1" stroke-width="3.2"/>
<circle clip-path="url(#clip842)" cx="363.841" cy="1345.09" r="14.4" fill="#0000ff" fill-rule="evenodd" fill-opacity="1" stroke="#000000" stroke-opacity="1" stroke-width="3.2"/>
<circle clip-path="url(#clip842)" cx="463.858" cy="1363.51" r="14.4" fill="#0000ff" fill-rule="evenodd" fill-opacity="1" stroke="#000000" stroke-opacity="1" stroke-width="3.2"/>
<circle clip-path="url(#clip842)" cx="682.943" cy="1150.88" r="14.4" fill="#0000ff" fill-rule="evenodd" fill-opacity="1" stroke="#000000" stroke-opacity="1" stroke-width="3.2"/>
<circle clip-path="url(#clip842)" cx="578.163" cy="1282.91" r="14.4" fill="#0000ff" fill-rule="evenodd" fill-opacity="1" stroke="#000000" stroke-opacity="1" stroke-width="3.2"/>
<circle clip-path="url(#clip842)" cx="587.689" cy="1371.96" r="14.4" fill="#0000ff" fill-rule="evenodd" fill-opacity="1" stroke="#000000" stroke-opacity="1" stroke-width="3.2"/>
<circle clip-path="url(#clip842)" cx="640.079" cy="1106.36" r="14.4" fill="#0000ff" fill-rule="evenodd" fill-opacity="1" stroke="#000000" stroke-opacity="1" stroke-width="3.2"/>
<circle clip-path="url(#clip842)" cx="711.52" cy="1280.61" r="14.4" fill="#0000ff" fill-rule="evenodd" fill-opacity="1" stroke="#000000" stroke-opacity="1" stroke-width="3.2"/>
<circle clip-path="url(#clip842)" cx="459.095" cy="1341.25" r="14.4" fill="#0000ff" fill-rule="evenodd" fill-opacity="1" stroke="#000000" stroke-opacity="1" stroke-width="3.2"/>
<circle clip-path="url(#clip842)" cx="420.993" cy="1259.12" r="14.4" fill="#0000ff" fill-rule="evenodd" fill-opacity="1" stroke="#000000" stroke-opacity="1" stroke-width="3.2"/>
<circle clip-path="url(#clip842)" cx="978.233" cy="1325.13" r="14.4" fill="#0000ff" fill-rule="evenodd" fill-opacity="1" stroke="#000000" stroke-opacity="1" stroke-width="3.2"/>
<circle clip-path="url(#clip842)" cx="440.044" cy="1223.04" r="14.4" fill="#0000ff" fill-rule="evenodd" fill-opacity="1" stroke="#000000" stroke-opacity="1" stroke-width="3.2"/>
<circle clip-path="url(#clip842)" cx="625.791" cy="1305.17" r="14.4" fill="#0000ff" fill-rule="evenodd" fill-opacity="1" stroke="#000000" stroke-opacity="1" stroke-width="3.2"/>
<circle clip-path="url(#clip842)" cx="797.249" cy="1262.95" r="14.4" fill="#0000ff" fill-rule="evenodd" fill-opacity="1" stroke="#000000" stroke-opacity="1" stroke-width="3.2"/>
<circle clip-path="url(#clip842)" cx="868.69" cy="1235.32" r="14.4" fill="#0000ff" fill-rule="evenodd" fill-opacity="1" stroke="#000000" stroke-opacity="1" stroke-width="3.2"/>
<path clip-path="url(#clip840)" d="M1727.08 196.789 L2282.08 196.789 L2282.08 93.1086 L1727.08 93.1086  Z" fill="#ffffff" fill-rule="evenodd" fill-opacity="1"/>
<polyline clip-path="url(#clip840)" style="stroke:#000000; stroke-linecap:round; stroke-linejoin:round; stroke-width:4; stroke-opacity:1; fill:none" points="1727.08,196.789 2282.08,196.789 2282.08,93.1086 1727.08,93.1086 1727.08,196.789 "/>
<circle clip-path="url(#clip840)" cx="1821.32" cy="144.949" r="20.48" fill="#0000ff" fill-rule="evenodd" fill-opacity="1" stroke="#000000" stroke-opacity="1" stroke-width="4.55111"/>
<path clip-path="url(#clip840)" d="M1931.57 130.84 Q1926.48 130.84 1923.47 134.636 Q1920.49 138.432 1920.49 144.983 Q1920.49 151.511 1923.47 155.307 Q1926.48 159.104 1931.57 159.104 Q1936.67 159.104 1939.63 155.307 Q1942.62 151.511 1942.62 144.983 Q1942.62 138.432 1939.63 134.636 Q1936.67 130.84 1931.57 130.84 M1931.57 127.044 Q1938.84 127.044 1943.2 131.928 Q1947.55 136.789 1947.55 144.983 Q1947.55 153.155 1943.2 158.039 Q1938.84 162.9 1931.57 162.9 Q1924.28 162.9 1919.91 158.039 Q1915.56 153.178 1915.56 144.983 Q1915.56 136.789 1919.91 131.928 Q1924.28 127.044 1931.57 127.044 Z" fill="#000000" fill-rule="nonzero" fill-opacity="1" /><path clip-path="url(#clip840)" d="M1973.29 149.289 Q1973.29 144.59 1971.34 141.928 Q1969.42 139.243 1966.04 139.243 Q1962.66 139.243 1960.72 141.928 Q1958.8 144.59 1958.8 149.289 Q1958.8 153.988 1960.72 156.673 Q1962.66 159.335 1966.04 159.335 Q1969.42 159.335 1971.34 156.673 Q1973.29 153.988 1973.29 149.289 M1958.8 140.238 Q1960.14 137.923 1962.18 136.812 Q1964.24 135.678 1967.08 135.678 Q1971.81 135.678 1974.75 139.428 Q1977.71 143.178 1977.71 149.289 Q1977.71 155.4 1974.75 159.15 Q1971.81 162.9 1967.08 162.9 Q1964.24 162.9 1962.18 161.789 Q1960.14 160.655 1958.8 158.34 L1958.8 162.229 L1954.51 162.229 L1954.51 126.21 L1958.8 126.21 L1958.8 140.238 Z" fill="#000000" fill-rule="nonzero" fill-opacity="1" /><path clip-path="url(#clip840)" d="M2001.3 137.067 L2001.3 141.094 Q1999.49 140.169 1997.55 139.706 Q1995.6 139.243 1993.52 139.243 Q1990.35 139.243 1988.75 140.215 Q1987.18 141.187 1987.18 143.131 Q1987.18 144.613 1988.31 145.469 Q1989.44 146.303 1992.87 147.067 L1994.33 147.391 Q1998.87 148.363 2000.76 150.145 Q2002.69 151.905 2002.69 155.076 Q2002.69 158.687 1999.82 160.793 Q1996.97 162.9 1991.97 162.9 Q1989.88 162.9 1987.62 162.483 Q1985.37 162.09 1982.87 161.28 L1982.87 156.881 Q1985.23 158.108 1987.52 158.733 Q1989.82 159.335 1992.06 159.335 Q1995.07 159.335 1996.69 158.317 Q1998.31 157.275 1998.31 155.4 Q1998.31 153.664 1997.13 152.738 Q1995.97 151.812 1992.01 150.956 L1990.53 150.608 Q1986.57 149.775 1984.82 148.062 Q1983.06 146.326 1983.06 143.317 Q1983.06 139.659 1985.65 137.669 Q1988.24 135.678 1993.01 135.678 Q1995.37 135.678 1997.45 136.025 Q1999.54 136.372 2001.3 137.067 Z" fill="#000000" fill-rule="nonzero" fill-opacity="1" /><path clip-path="url(#clip840)" d="M2031.64 148.201 L2031.64 150.284 L2012.06 150.284 Q2012.34 154.682 2014.7 156.997 Q2017.08 159.289 2021.32 159.289 Q2023.77 159.289 2026.06 158.687 Q2028.38 158.085 2030.65 156.881 L2030.65 160.909 Q2028.36 161.881 2025.95 162.391 Q2023.54 162.9 2021.06 162.9 Q2014.86 162.9 2011.23 159.289 Q2007.62 155.678 2007.62 149.52 Q2007.62 143.155 2011.04 139.428 Q2014.49 135.678 2020.32 135.678 Q2025.56 135.678 2028.59 139.057 Q2031.64 142.414 2031.64 148.201 M2027.38 146.951 Q2027.34 143.456 2025.42 141.372 Q2023.52 139.289 2020.37 139.289 Q2016.81 139.289 2014.65 141.303 Q2012.52 143.317 2012.2 146.974 L2027.38 146.951 Z" fill="#000000" fill-rule="nonzero" fill-opacity="1" /><path clip-path="url(#clip840)" d="M2053.66 140.284 Q2052.94 139.868 2052.08 139.682 Q2051.25 139.474 2050.23 139.474 Q2046.62 139.474 2044.68 141.835 Q2042.75 144.173 2042.75 148.571 L2042.75 162.229 L2038.47 162.229 L2038.47 136.303 L2042.75 136.303 L2042.75 140.331 Q2044.1 137.969 2046.25 136.835 Q2048.4 135.678 2051.48 135.678 Q2051.92 135.678 2052.45 135.747 Q2052.99 135.794 2053.63 135.909 L2053.66 140.284 Z" fill="#000000" fill-rule="nonzero" fill-opacity="1" /><path clip-path="url(#clip840)" d="M2055.07 136.303 L2059.58 136.303 L2067.69 158.062 L2075.79 136.303 L2080.3 136.303 L2070.58 162.229 L2064.79 162.229 L2055.07 136.303 Z" fill="#000000" fill-rule="nonzero" fill-opacity="1" /><path clip-path="url(#clip840)" d="M2108.36 148.201 L2108.36 150.284 L2088.77 150.284 Q2089.05 154.682 2091.41 156.997 Q2093.8 159.289 2098.03 159.289 Q2100.49 159.289 2102.78 158.687 Q2105.09 158.085 2107.36 156.881 L2107.36 160.909 Q2105.07 161.881 2102.66 162.391 Q2100.25 162.9 2097.78 162.9 Q2091.57 162.9 2087.94 159.289 Q2084.33 155.678 2084.33 149.52 Q2084.33 143.155 2087.75 139.428 Q2091.2 135.678 2097.04 135.678 Q2102.27 135.678 2105.3 139.057 Q2108.36 142.414 2108.36 148.201 M2104.1 146.951 Q2104.05 143.456 2102.13 141.372 Q2100.23 139.289 2097.08 139.289 Q2093.52 139.289 2091.37 141.303 Q2089.24 143.317 2088.91 146.974 L2104.1 146.951 Z" fill="#000000" fill-rule="nonzero" fill-opacity="1" /><path clip-path="url(#clip840)" d="M2132.41 140.238 L2132.41 126.21 L2136.67 126.21 L2136.67 162.229 L2132.41 162.229 L2132.41 158.34 Q2131.06 160.655 2129 161.789 Q2126.97 162.9 2124.1 162.9 Q2119.4 162.9 2116.43 159.15 Q2113.5 155.4 2113.5 149.289 Q2113.5 143.178 2116.43 139.428 Q2119.4 135.678 2124.1 135.678 Q2126.97 135.678 2129 136.812 Q2131.06 137.923 2132.41 140.238 M2117.89 149.289 Q2117.89 153.988 2119.81 156.673 Q2121.76 159.335 2125.14 159.335 Q2128.52 159.335 2130.46 156.673 Q2132.41 153.988 2132.41 149.289 Q2132.41 144.59 2130.46 141.928 Q2128.52 139.243 2125.14 139.243 Q2121.76 139.243 2119.81 141.928 Q2117.89 144.59 2117.89 149.289 Z" fill="#000000" fill-rule="nonzero" fill-opacity="1" /><path clip-path="url(#clip840)" d="M2177.57 140.238 L2177.57 126.21 L2181.83 126.21 L2181.83 162.229 L2177.57 162.229 L2177.57 158.34 Q2176.23 160.655 2174.17 161.789 Q2172.13 162.9 2169.26 162.9 Q2164.56 162.9 2161.6 159.15 Q2158.66 155.4 2158.66 149.289 Q2158.66 143.178 2161.6 139.428 Q2164.56 135.678 2169.26 135.678 Q2172.13 135.678 2174.17 136.812 Q2176.23 137.923 2177.57 140.238 M2163.05 149.289 Q2163.05 153.988 2164.98 156.673 Q2166.92 159.335 2170.3 159.335 Q2173.68 159.335 2175.62 156.673 Q2177.57 153.988 2177.57 149.289 Q2177.57 144.59 2175.62 141.928 Q2173.68 139.243 2170.3 139.243 Q2166.92 139.243 2164.98 141.928 Q2163.05 144.59 2163.05 149.289 Z" fill="#000000" fill-rule="nonzero" fill-opacity="1" /><path clip-path="url(#clip840)" d="M2202.38 149.196 Q2197.22 149.196 2195.23 150.377 Q2193.24 151.557 2193.24 154.405 Q2193.24 156.673 2194.72 158.016 Q2196.23 159.335 2198.8 159.335 Q2202.34 159.335 2204.47 156.835 Q2206.62 154.312 2206.62 150.145 L2206.62 149.196 L2202.38 149.196 M2210.88 147.437 L2210.88 162.229 L2206.62 162.229 L2206.62 158.293 Q2205.16 160.655 2202.99 161.789 Q2200.81 162.9 2197.66 162.9 Q2193.68 162.9 2191.32 160.678 Q2188.98 158.432 2188.98 154.682 Q2188.98 150.307 2191.9 148.085 Q2194.84 145.863 2200.65 145.863 L2206.62 145.863 L2206.62 145.446 Q2206.62 142.507 2204.68 140.909 Q2202.75 139.289 2199.26 139.289 Q2197.04 139.289 2194.93 139.821 Q2192.82 140.354 2190.88 141.419 L2190.88 137.483 Q2193.22 136.581 2195.42 136.141 Q2197.61 135.678 2199.7 135.678 Q2205.32 135.678 2208.1 138.594 Q2210.88 141.511 2210.88 147.437 Z" fill="#000000" fill-rule="nonzero" fill-opacity="1" /><path clip-path="url(#clip840)" d="M2223.86 128.942 L2223.86 136.303 L2232.64 136.303 L2232.64 139.613 L2223.86 139.613 L2223.86 153.687 Q2223.86 156.858 2224.72 157.761 Q2225.6 158.664 2228.26 158.664 L2232.64 158.664 L2232.64 162.229 L2228.26 162.229 Q2223.33 162.229 2221.46 160.4 Q2219.58 158.548 2219.58 153.687 L2219.58 139.613 L2216.46 139.613 L2216.46 136.303 L2219.58 136.303 L2219.58 128.942 L2223.86 128.942 Z" fill="#000000" fill-rule="nonzero" fill-opacity="1" /><path clip-path="url(#clip840)" d="M2250.02 149.196 Q2244.86 149.196 2242.87 150.377 Q2240.88 151.557 2240.88 154.405 Q2240.88 156.673 2242.36 158.016 Q2243.86 159.335 2246.43 159.335 Q2249.98 159.335 2252.11 156.835 Q2254.26 154.312 2254.26 150.145 L2254.26 149.196 L2250.02 149.196 M2258.52 147.437 L2258.52 162.229 L2254.26 162.229 L2254.26 158.293 Q2252.8 160.655 2250.62 161.789 Q2248.45 162.9 2245.3 162.9 Q2241.32 162.9 2238.96 160.678 Q2236.62 158.432 2236.62 154.682 Q2236.62 150.307 2239.54 148.085 Q2242.48 145.863 2248.29 145.863 L2254.26 145.863 L2254.26 145.446 Q2254.26 142.507 2252.31 140.909 Q2250.39 139.289 2246.9 139.289 Q2244.67 139.289 2242.57 139.821 Q2240.46 140.354 2238.52 141.419 L2238.52 137.483 Q2240.86 136.581 2243.05 136.141 Q2245.25 135.678 2247.34 135.678 Q2252.96 135.678 2255.74 138.594 Q2258.52 141.511 2258.52 147.437 Z" fill="#000000" fill-rule="nonzero" fill-opacity="1" /></svg>
